<svg xmlns="http://www.w3.org/2000/svg" width="100.246" height="120.504" viewBox="0 0 100.246 120.504">
  <g id="sachiesan" transform="translate(0 0.001)">
    <g id="_" transform="translate(15.486 89.101)">
      <path id="パス_543" data-name="パス 543" d="M13.857,74.483c.378.214.744.454,1.109.706.189.126.378.265.567.4-.139-.1-.025-.013.05.038s.164.126.24.189c.164.139.328.277.479.416.063.063.139.126.2.2.025.025.2.24.1.1s.1.151.113.189c.05.076.088.164.139.252.063.113.076.164,0,0,.038.113.088.227.126.328a9.59,9.59,0,0,0,1.185,2.421,8.728,8.728,0,0,1,.668,1.009c.076.139.038.139,0,0l.076.265c.113.391,0-.176,0,.038s.088-.353,0,.038l2.635-.693c-.126-.126-.126-.113,0,.05a1.2,1.2,0,0,1-.126-.214c-.063-.113-.113-.227-.164-.34-.164-.353-.328-.706-.479-1.059l-.933-2.03-.933-2.03c-.164-.353-.315-.706-.479-1.059-.227-.492.126.277-.063-.164-.05-.189-.05-.176-.025.013-.038.2-.038.214.025.038l-2.874.378A19.266,19.266,0,0,0,18.408,77.9c.265.277.542.555.794.845.013.025.29.378.113.126.113.151.214.315.315.479a1.4,1.4,0,0,1,.113.24c-.076-.176-.076-.176-.013,0,.025.088.1.618.076.227,0,.113-.063.605.025.227a1.843,1.843,0,0,1-.063.252c.088-.176.088-.189,0-.025a1.6,1.6,0,0,0,.567,2.156,1.572,1.572,0,0,0,2.156-.567c1.059-1.979.126-4.022-1.261-5.547-.567-.618-1.16-1.21-1.689-1.866-.176-.214.013.038-.076-.1-.063-.088-.113-.164-.176-.24-.126-.189-.265-.366-.378-.555-.252-.378-.479-.769-.693-1.16a1.577,1.577,0,0,0-1.576-.756,1.619,1.619,0,0,0-1.311,1.135c-.416,1.034.164,2.08.593,3L17,78.1l1.072,2.332a6.382,6.382,0,0,0,1.273,2.194,1.6,1.6,0,0,0,2.635-.693,4.086,4.086,0,0,0-.756-3.366,13.764,13.764,0,0,1-.782-1.135c-.063-.1-.113-.214-.164-.315.1.2.013.025-.025-.088-.088-.227-.164-.454-.24-.668A6.176,6.176,0,0,0,18.2,73.688a17.819,17.819,0,0,0-2.7-1.916,1.592,1.592,0,0,0-2.156.567,1.615,1.615,0,0,0,.567,2.156h0Z" transform="translate(-12.068 -70.525)" fill="#54777d"/>
      <path id="パス_544" data-name="パス 544" d="M12.5,73.66a38.32,38.32,0,0,0,4.526,6.392c1.639,2.03,3.921,3.807,6.682,3.1a1.588,1.588,0,0,0,1.1-1.941,1.614,1.614,0,0,0-1.941-1.1s-.416.076-.227.05-.2,0-.24,0c-.277.025.05.038-.1,0a3.1,3.1,0,0,1-.366-.088c-.1-.025-.189-.063-.29-.088-.441-.151.126.076-.113-.05s-.441-.252-.656-.391c-.227-.164.252.227-.113-.088-.076-.076-.164-.139-.24-.214a7.884,7.884,0,0,1-.555-.567c-.353-.391-.681-.807-1.021-1.223a31.5,31.5,0,0,1-3.732-5.383,1.576,1.576,0,1,0-2.723,1.588h0Z" transform="translate(-12.291 -70.596)" fill="#54777d"/>
      <path id="パス_545" data-name="パス 545" d="M14.315,73.892a1.577,1.577,0,1,0-1.521-1.576,1.577,1.577,0,0,0,1.521,1.576Z" transform="translate(-12.16 -70.74)" fill="#54777d"/>
    </g>
    <g id="_-2">
      <path id="パス_546" data-name="パス 546" d="M31.632,9.077S42.49-4.2,51.888,1.361A40.468,40.468,0,0,0,69.5,7.16S94.341,29.613,96.76,36.131c0,0,4.825,18.582.479,24.861,0,0-13.5-23.171-18.82-23.171h-8.2S51.16,31.064,38.135,32.274l-1.209,3.858s7.961,2.9,2.658,15.935-.97-.719-.97-.719-12.55,7.967-13.029,14.964-.718,17.864-.718,17.864L15.7,71.859l-4.11,6.278S-.692,63.879.026,53.743,5.342,27.911,7.987,25.5s8.44-7.488,9.171-10.867,9.889-7.488,14.474-5.547Z" transform="translate(0.004 -0.001)" fill="#54777d"/>
      <path id="パス_547" data-name="パス 547" d="M66.672,104.592a34.361,34.361,0,0,1-8.734-1.409,86.776,86.776,0,0,1-13.981-5.3A85.619,85.619,0,0,1,31.28,90.6c-2.639-1.876-6.047-4.658-7.3-7.261A34.6,34.6,0,0,0,19.662,76.1a4.921,4.921,0,0,0-1.478-1.334,9.4,9.4,0,0,1-5.81-2.407A11.857,11.857,0,0,1,9.38,67.774,19.691,19.691,0,0,1,8.14,61.4h1a19.018,19.018,0,0,0,1.182,6.04,10.848,10.848,0,0,0,2.735,4.189,8.447,8.447,0,0,0,5.263,2.144h.039l.038.009c.162.036.772.248,1.831,1.442a34.754,34.754,0,0,1,4.656,7.68c.916,1.908,3.328,4.287,6.975,6.879a84.607,84.607,0,0,0,12.526,7.191A85.766,85.766,0,0,0,58.2,102.218c4.574,1.246,8.309,1.652,10.8,1.176,2.374-.454,4.9-2.315,7.5-5.531a58.14,58.14,0,0,0,6.45-10.426A123.258,123.258,0,0,0,89.035,72.83l.95.313a124.343,124.343,0,0,1-6.136,14.732,59.157,59.157,0,0,1-6.564,10.614c-2.76,3.406-5.484,5.387-8.1,5.887A13.44,13.44,0,0,1,66.672,104.592Z" transform="translate(2.257 15.911)" fill="#54777d"/>
      <path id="パス_548" data-name="パス 548" d="M74.6,73.023l-1-.08c.484-6.015-.471-29.793-.48-30.032l1-.04C74.159,43.85,75.086,66.948,74.6,73.023Z" transform="translate(19.118 11.123)" fill="#54777d"/>
      <path id="パス_549" data-name="パス 549" d="M74.8,53.136l-.312-.95c1.68-.551,1.833-4.117,1.75-5.444l1-.063a14.1,14.1,0,0,1-.144,2.788C76.763,51.508,75.992,52.743,74.8,53.136Z" transform="translate(19.384 12.127)" fill="#54777d"/>
      <path id="パス_550" data-name="パス 550" d="M33.45,45.89l-.339-.941a49.1,49.1,0,0,1,7.733-1.955,27.909,27.909,0,0,1,6.6-.381,10.62,10.62,0,0,1,5.776,1.933l-.615.789C47.1,41.041,33.585,45.841,33.45,45.89Z" transform="translate(8.64 11.178)" fill="#54777d"/>
      <path id="パス_551" data-name="パス 551" d="M74.781,45.29a16.477,16.477,0,0,0-5.253-1.8,18.221,18.221,0,0,0-4.6-.147,17.3,17.3,0,0,0-4.516,1l-.382-.924a17.923,17.923,0,0,1,4.77-1.064,19.233,19.233,0,0,1,4.867.149,17.476,17.476,0,0,1,5.594,1.908Z" transform="translate(15.625 11.104)" fill="#54777d"/>
      <path id="パス_552" data-name="パス 552" d="M35.885,53.308l-.349-.937a34.96,34.96,0,0,1,6.07-1.554,20.655,20.655,0,0,1,5.222-.241,8.5,8.5,0,0,1,4.657,1.714l-.636.771C46.448,49.433,35.99,53.269,35.885,53.308Z" transform="translate(9.272 13.243)" fill="#54777d"/>
      <path id="パス_553" data-name="パス 553" d="M60.687,52.839l-.435-.9a25.651,25.651,0,0,1,5.551-1.81,15.554,15.554,0,0,1,4.912-.273,7.976,7.976,0,0,1,4.58,2l-.682.731a7,7,0,0,0-4.021-1.743A14.566,14.566,0,0,0,66,51.11a25.04,25.04,0,0,0-5.313,1.729Z" transform="translate(15.69 13.052)" fill="#54777d"/>
      <path id="パス_554" data-name="パス 554" d="M57.5,71.121a3.537,3.537,0,0,1-1.719-.374,1.887,1.887,0,0,1-.667-.593c-3.59-.05-6.176-.993-7.689-2.806a6.346,6.346,0,0,1-1.349-4.867l.984.177a5.422,5.422,0,0,0,1.141,4.06c1.358,1.617,3.786,2.438,7.217,2.438h.427l.057.37a.987.987,0,0,0,.661.471c.6.186,1.772.253,4.005-.487l.02-.006c1.76-.5,4.367-1.632,4.651-2.565a20.731,20.731,0,0,0,.457-4.517h1a21.246,21.246,0,0,1-.5,4.812c-.252.826-1.219,1.6-2.957,2.367a20.665,20.665,0,0,1-2.366.865,11.105,11.105,0,0,1-3.373.655Z" transform="translate(12.074 16.205)" fill="#54777d"/>
      <path id="パス_555" data-name="パス 555" d="M67.011,74.034l.023.482c.01.216.216,5.327-2.724,8.47a7.631,7.631,0,0,1-5.658,2.353h-.211a16.3,16.3,0,0,1-6.552-1.6,34.9,34.9,0,0,1-5.932-3.478,50.9,50.9,0,0,1-6.013-5.043l-.822-.836Zm-8.57,10.308h.192a6.669,6.669,0,0,0,4.944-2.033c2.158-2.3,2.433-5.956,2.46-7.261l-24.509.306a51.621,51.621,0,0,0,5.024,4.1c3.124,2.231,7.724,4.888,11.889,4.888Z" transform="translate(10.457 19.336)" fill="#54777d"/>
      <path id="パス_556" data-name="パス 556" d="M42.182,29.813q-.431,0-.87-.035a14.211,14.211,0,0,1-4.662-1.253,19.521,19.521,0,0,1-4.593-2.882l.665-.747a18.874,18.874,0,0,0,4.361,2.727,13.19,13.19,0,0,0,4.323,1.16,8.97,8.97,0,0,0,4.767-.9l.447.9A9.833,9.833,0,0,1,42.182,29.813Z" transform="translate(8.411 6.561)" fill="#54777d"/>
      <path id="パス_557" data-name="パス 557" d="M38.826,11.3c-2.41-.1-5.034-1.224-7.8-3.331A25.626,25.626,0,0,1,27.6,4.85l.751-.66c.052.059,5.235,5.881,10.513,6.109Z" transform="translate(7.268 1.177)" fill="#54777d"/>
      <path id="パス_558" data-name="パス 558" d="M55.848,6.039q-.685,0-1.394-.05A26.086,26.086,0,0,1,48.9,4.942a30.965,30.965,0,0,1-5.653-2.275l.483-.875h0a30.585,30.585,0,0,0,5.475,2.2c2.9.858,7.169,1.627,11.027.423l.3.955a15.7,15.7,0,0,1-4.684.669Z" transform="translate(11.29 0.58)" fill="#54777d"/>
      <path id="パス_559" data-name="パス 559" d="M80.868,34.074l-.5-.863a2.175,2.175,0,0,0,1.11-1.414,4.785,4.785,0,0,0-.752-3.117c-.373-.281-2.053-1.559-3.736-3.08-2.657-2.4-4-4.177-4.117-5.427-.039-.438-.651-1.9-5.464-5.971-2.7-2.287-5.413-4.278-5.44-4.3l.591-.806c.027.02,2.762,2.029,5.491,4.338A47.568,47.568,0,0,1,71.895,17c1.277,1.36,1.9,2.339,1.97,3.08.049.548.608,1.9,3.791,4.775,1.862,1.683,3.718,3.061,3.737,3.075l.07.052.048.073a5.859,5.859,0,0,1,.937,3.961,3.165,3.165,0,0,1-1.58,2.058Z" transform="translate(16.157 2.476)" fill="#54777d"/>
      <path id="パス_560" data-name="パス 560" d="M74.873,31.739c-.156-2.254-1.406-4.692-3.717-7.246a42.385,42.385,0,0,0-7.669-6.4A84.01,84.01,0,0,0,52.474,11.88l.411-.912a85.084,85.084,0,0,1,11.151,6.288,43.4,43.4,0,0,1,7.858,6.565c2.467,2.727,3.805,5.369,3.977,7.853Z" transform="translate(13.66 2.976)" fill="#54777d"/>
      <path id="パス_561" data-name="パス 561" d="M84.3,56.115,77.321,44.561c-.248-.3-2.431-2.924-4.876-5.567-4.632-5.007-6.179-5.736-6.629-5.817a43.994,43.994,0,0,0-8.075.006l-.089.008-.086-.023a10.863,10.863,0,0,1-5.064-3.09,16.348,16.348,0,0,1-2.956-4.517,22.929,22.929,0,0,1-1.761-5.845l.991-.132h0a22.351,22.351,0,0,0,1.691,5.587,15.326,15.326,0,0,0,2.77,4.229,9.889,9.889,0,0,0,4.508,2.78,42.861,42.861,0,0,1,8.248.014,8.152,8.152,0,0,1,3.216,2.133c1.1.991,2.439,2.334,3.973,3.992,2.6,2.814,4.911,5.607,4.934,5.634l.023.028L85.154,55.6Z" transform="translate(12.512 5.094)" fill="#54777d"/>
      <path id="パス_562" data-name="パス 562" d="M77.648,54.13l-.218-.976c.74-.165,1.3-.821,1.66-1.949a18.179,18.179,0,0,0,.237-7.138A15.415,15.415,0,0,0,78.193,39.3c-.23-.175-.751-.637-1.858-4.508-.541-1.89-.968-3.715-.972-3.733l.974-.227c0,.018.424,1.811.956,3.672,1.009,3.528,1.469,3.971,1.518,4.01.121.091.4.3.8,1.727a25.746,25.746,0,0,1,.624,3.075,22.893,22.893,0,0,1,.02,7.388C79.828,52.688,78.95,53.84,77.648,54.13Z" transform="translate(19.7 8.029)" fill="#54777d"/>
      <path id="パス_563" data-name="パス 563" d="M53.971,33.209a36.522,36.522,0,0,0-3.659-3.457c-2.588-2.1-4.654-3.026-5.976-2.673-1.668.446-4.1-.6-7.237-3.107a43.625,43.625,0,0,1-4.125-3.791l.73-.684a43.455,43.455,0,0,0,4.028,3.7c2.787,2.229,5.041,3.264,6.345,2.915,1.669-.446,3.982.519,6.874,2.87a36.835,36.835,0,0,1,3.763,3.557Z" transform="translate(8.654 5.149)" fill="#54777d"/>
      <path id="パス_564" data-name="パス 564" d="M17.474,34.233q-.142,0-.292-.008l.055-1c.49.027,1.116-.011,1.316-.346.141-.237.194-.779-.357-2.018a29.034,29.034,0,0,0-1.724-3.088c-.341-.557-.663-1.083-.911-1.537a2.906,2.906,0,0,1-.287-2.465,4.142,4.142,0,0,1,2.235-2.1l.36.933-.18-.467.181.466a3.171,3.171,0,0,0-1.658,1.515,1.932,1.932,0,0,0,.227,1.637c.237.433.553.949.887,1.5,1.365,2.231,2.911,4.759,2.086,6.14a2.076,2.076,0,0,1-1.938.838Z" transform="translate(4.06 5.746)" fill="#54777d"/>
      <path id="パス_565" data-name="パス 565" d="M8,44.593l-.582-.813c.626-.449.431-1.28.06-2.6a5.214,5.214,0,0,1-.237-3.209c.828-2.183,4.591-2.705,4.751-2.726l.132.991h0c-.925.124-3.436.741-3.947,2.089a4.573,4.573,0,0,0,.264,2.584C8.81,42.224,9.228,43.714,8,44.593Z" transform="translate(1.978 9.278)" fill="#54777d"/>
      <path id="パス_566" data-name="パス 566" d="M6.441,58c-.519-2.8,2.115-7.384,2.227-7.578l.865.5c-.029.05-2.561,4.462-2.109,6.894Z" transform="translate(1.796 13.155)" fill="#54777d"/>
      <path id="パス_567" data-name="パス 567" d="M22.049,73.8l-.864-.92c-.393-.418-.778-.842-1.146-1.26a36.12,36.12,0,0,1-6.464-10.468,18.992,18.992,0,0,1-1.222-4.5l1-.1a18.535,18.535,0,0,0,1.177,4.283A34.493,34.493,0,0,0,20.8,70.959l.258.291V67.281a28.167,28.167,0,0,1-.236-9.886,24.851,24.851,0,0,1,2.341-7.256A20.753,20.753,0,0,1,27.5,44.162l.656.755-.328-.378.328.377a20.2,20.2,0,0,0-4.129,5.714A23.859,23.859,0,0,0,21.8,57.585a27.2,27.2,0,0,0,.244,9.551l.009.048Z" transform="translate(3.34 11.552)" fill="#54777d"/>
    </g>
  </g>
</svg>
