
<svg xmlns="http://www.w3.org/2000/svg" width="98.41" height="120.027" viewBox="0 0 98.41 120.027">
  <g id="グループ_369" data-name="グループ 369" transform="translate(-1446.461 -791.969)">
    <g id="アセット_8" data-name="アセット 8" transform="translate(1446.461 792)">
      <g id="_イヤー_1-2" transform="translate(20.763 4.98)">
        <path id="パス_568" data-name="パス 568" d="M20.485,50.684l-.551-.835a17.808,17.808,0,0,1,5.36-2.167,16.016,16.016,0,0,1,5.469-.337,14.544,14.544,0,0,1,6.246,2.267l-.542.84a13.552,13.552,0,0,0-5.819-2.114,15.02,15.02,0,0,0-5.128.319,17.042,17.042,0,0,0-5.035,2.027Z" transform="translate(-16.029 6.178)" fill="#54777d"/>
        <path id="パス_569" data-name="パス 569" d="M65.329,50.9a8.162,8.162,0,0,0-4.469-2.334,12.413,12.413,0,0,0-4.713.156,19.843,19.843,0,0,0-5.247,1.94l-.5-.865a20.559,20.559,0,0,1,5.543-2.052,13.4,13.4,0,0,1,5.093-.162A9.143,9.143,0,0,1,66.042,50.2Z" transform="translate(-8.923 6.216)" fill="#54777d"/>
        <path id="楕円形_90" data-name="楕円形 90" d="M12.581-.5a14.58,14.58,0,0,1,9.212,3.111,9.811,9.811,0,0,1,3.869,7.627,9.811,9.811,0,0,1-3.869,7.627,14.58,14.58,0,0,1-9.212,3.111,14.58,14.58,0,0,1-9.212-3.111A9.811,9.811,0,0,1-.5,10.237,9.811,9.811,0,0,1,3.369,2.611,14.58,14.58,0,0,1,12.581-.5Zm0,20.475c6.661,0,12.081-4.368,12.081-9.737S19.242.5,12.581.5.5,4.868.5,10.237,5.919,19.975,12.581,19.975Z" transform="translate(0 46.96)" fill="#54777d"/>
        <path id="楕円形_91" data-name="楕円形 91" d="M12.581-.5a14.58,14.58,0,0,1,9.212,3.111,9.811,9.811,0,0,1,3.869,7.627,9.811,9.811,0,0,1-3.869,7.627,14.58,14.58,0,0,1-9.212,3.111,14.58,14.58,0,0,1-9.212-3.111A9.811,9.811,0,0,1-.5,10.237,9.811,9.811,0,0,1,3.369,2.611,14.58,14.58,0,0,1,12.581-.5Zm0,20.475c6.661,0,12.081-4.368,12.081-9.737S19.242.5,12.581.5.5,4.868.5,10.237,5.919,19.975,12.581,19.975Z" transform="translate(37.558 47.071)" fill="#54777d"/>
        <path id="パス_570" data-name="パス 570" d="M35.08,10.3a47.648,47.648,0,0,0,2.529,11.039c.333.925,1.825.53,1.492-.407A46.4,46.4,0,0,1,36.634,10.3a.785.785,0,0,0-.765-.765.768.768,0,0,0-.765.765h0Z" transform="translate(-12.558 -2.74)" fill="#54777d"/>
        <path id="パス_571" data-name="パス 571" d="M78.2,20.3a2.805,2.805,0,0,0-3-1.841l-.488.1-.1-.488a17.244,17.244,0,0,0-1.9-5.358A6.919,6.919,0,0,0,70.458,10.3a4.031,4.031,0,0,0-3.006-.6L67,9.837l-.153-.45c-.92-2.66-2.565-4.248-4.888-4.72a7.468,7.468,0,0,0-3.243.077l-.284-.959a8.427,8.427,0,0,1,3.726-.1A7.355,7.355,0,0,1,67.64,8.658a5.24,5.24,0,0,1,3.309.765c2.14,1.291,3.672,3.986,4.559,8.011a3.823,3.823,0,0,1,1.063.142A3.939,3.939,0,0,1,79.1,19.882Z" transform="translate(-7.075 -4.027)" fill="#54777d"/>
      </g>
      <g id="_">
        <path id="パス_572" data-name="パス 572" d="M23.368,21.494Q38.317,19.9,53.34,19.335c3.219-.123,6.315-2.751,6.167-6.167C59.36,9.936,56.794,6.865,53.34,7q-15.023.574-29.972,2.158c-3.195.345-6.327,2.59-6.167,6.167.136,3.047,2.726,6.537,6.167,6.167Z" transform="translate(4.031 1.646)" fill="#54777d"/>
        <path id="パス_573" data-name="パス 573" d="M23.775,17.929a47.126,47.126,0,0,1,7.45-4.3l-1.468.617a20.508,20.508,0,0,1,4.971-1.369l-1.64.222a27.021,27.021,0,0,1,4.354-.185,6.209,6.209,0,0,0,6.167-6.167A6.309,6.309,0,0,0,37.441.574,26.685,26.685,0,0,0,26.747,2.227a49.65,49.65,0,0,0-9.2,5.045A6.531,6.531,0,0,0,14.71,10.96a6.313,6.313,0,0,0,.617,4.749c1.727,2.677,5.563,4.12,8.437,2.208h0Z" transform="translate(3.402 0.142)" fill="#54777d"/>
        <path id="パス_574" data-name="パス 574" d="M30.191,14.585l9.053-1.307c.234-.037,2.64-.358,1.27-.185.765-.086,1.517-.173,2.282-.21a15.9,15.9,0,0,1,1.714,0c.395.025.777.049,1.172.1-.666-.1-.641-.086.1.025,2.96.481,5.871.691,8.856.925a11.611,11.611,0,0,1,1.455.136c-1.677-.37.407.123.715.2s.6.16.9.259c.641.234.592.21-.185-.1.419-.025,1.27.765,1.591,1.011,2.578,1.949,7.006.493,8.437-2.208,1.714-3.244.543-6.352-2.208-8.437s-6.155-2.714-9.5-3.084c-1.307-.148-2.615-.2-3.922-.284-.654-.037-1.3-.111-1.949-.16-.851-.062.925.173-.049,0-.481-.086-.962-.148-1.455-.222A29.331,29.331,0,0,0,42.785.573c-1.912.086-3.762.407-5.624.666L26.9,2.719c-3.207.456-5.242,4.7-4.3,7.586,1.135,3.5,4.157,4.8,7.586,4.3h0Z" transform="translate(5.237 0.143)" fill="#54777d"/>
        <path id="パス_575" data-name="パス 575" d="M48.058,18.554a25.621,25.621,0,0,1,3.885.185l-1.64-.222a26.157,26.157,0,0,1,6.611,1.813l-1.468-.617a26.073,26.073,0,0,1,5.4,3.17L59.6,21.921a25.1,25.1,0,0,1,2.874,2.615,6.217,6.217,0,0,0,8.72,0,6.4,6.4,0,0,0,0-8.72A31.089,31.089,0,0,0,48.058,6.232c-3.219.086-6.315,2.775-6.167,6.167a6.177,6.177,0,0,0,6.167,6.167h0Z" transform="translate(9.794 1.465)" fill="#54777d"/>
        <path id="パス_576" data-name="パス 576" d="M40.877,12.041c4.144.555,8.252,1.27,12.334,2.183,1.862.407,3.737.814,5.563,1.369.432.136.851.284,1.27.432.4.148.333.123-.173-.074l.518.247c.925.506,1.85,1.011,2.751,1.554.728.432,1.455.876,2.171,1.332.358.222.7.469,1.048.691,1.307.851-.506-.506.148.086a21.848,21.848,0,0,1,1.949,1.912c-.974-1.135.715.9.617,1.246l-.234-.58c.086.222.173.456.247.691.136.4.247.777.345,1.184s.2.8.271,1.209c.136.691.259.9.049.1a25.965,25.965,0,0,1,.321,5.538c.074,3.219,2.788,6.315,6.167,6.167a6.2,6.2,0,0,0,6.167-6.167c-.1-4.181-.3-8.535-1.875-12.445-1.961-4.872-5.464-8.1-9.867-10.817A45.284,45.284,0,0,0,64.078,4.43a42.825,42.825,0,0,0-6.155-1.788Q51.1,1.051,44.133.138a6.817,6.817,0,0,0-4.749.617,6.292,6.292,0,0,0-2.837,3.688c-.654,2.9.888,7.129,4.3,7.586h0Z" transform="translate(8.514 0.01)" fill="#54777d"/>
        <path id="パス_577" data-name="パス 577" d="M80.086,40.726a10.285,10.285,0,0,0,1.209-6.155,36.063,36.063,0,0,0-.888-5.365,14.775,14.775,0,0,0-2.282-4.81c-.851-1.159-1.764-2.294-2.64-3.441a4.56,4.56,0,0,0-1.591-1.727,4.586,4.586,0,0,0-2.1-1.1,6.313,6.313,0,0,0-4.749.617,6.219,6.219,0,0,0-2.837,3.688,5.822,5.822,0,0,0,.617,4.749A27.6,27.6,0,0,1,68.7,32.721l-.617-1.468a19.764,19.764,0,0,1,1.048,4.638l-.222-1.64a8.539,8.539,0,0,1,.074,2.171l.222-1.64a4.641,4.641,0,0,1-.21.814l.617-1.468a2.185,2.185,0,0,1-.185.382,6.437,6.437,0,0,0-.617,4.749,6.3,6.3,0,0,0,2.837,3.688,6.172,6.172,0,0,0,8.437-2.22h0Z" transform="translate(14.954 4.196)" fill="#54777d"/>
        <path id="パス_578" data-name="パス 578" d="M70.648,30.314a6.167,6.167,0,1,0-6.167-6.167,6.234,6.234,0,0,0,6.167,6.167Z" transform="translate(15.067 4.21)" fill="#54777d"/>
        <path id="パス_579" data-name="パス 579" d="M18.847,7.487a3.583,3.583,0,0,1-.333.506l.962-1.246a4.023,4.023,0,0,1-.567.555l1.246-.962a5.99,5.99,0,0,1-1.048.617l1.468-.617a29.956,29.956,0,0,1-4.527,1,12.372,12.372,0,0,0-6.155,3.737c-.974,1.073-1.924,2.084-2.985,3.071A9.85,9.85,0,0,0,3.54,21.289a6.42,6.42,0,0,0,1.8,4.366,6.09,6.09,0,0,0,4.366,1.8,6.284,6.284,0,0,0,6.167-6.167c0-.123,0-.259.012-.382l-.222,1.64a2.969,2.969,0,0,1,.21-.715L15.258,23.3a3.831,3.831,0,0,1,.506-.8L14.8,23.744c.728-.876,1.665-1.554,2.442-2.393a22.765,22.765,0,0,1,2.615-2.726l-1.246.962a5.561,5.561,0,0,1,1.011-.592l-1.468.617c1.542-.641,3.232-.617,4.823-1.073A10.714,10.714,0,0,0,29.5,13.7a6.378,6.378,0,0,0,.617-4.749,6.172,6.172,0,0,0-11.273-1.48h0Z" transform="translate(0.843 1.061)" fill="#54777d"/>
        <path id="パス_580" data-name="パス 580" d="M22.653,9.622c-2.1,2.2-3.787,4.773-6.192,6.673l1.246-.962c-2.109,1.616-4.527,2.751-6.66,4.329A6.722,6.722,0,0,0,8.209,23.35a6.313,6.313,0,0,0,.617,4.75,6.219,6.219,0,0,0,3.688,2.837,5.939,5.939,0,0,0,4.749-.617c1.159-.851,2.393-1.579,3.626-2.319a37.522,37.522,0,0,0,4.625-3.244c2.245-1.85,3.848-4.317,5.846-6.4a6.4,6.4,0,0,0,1.8-4.366A6.175,6.175,0,0,0,22.628,9.622h0Z" transform="translate(1.885 1.837)" fill="#54777d"/>
        <path id="パス_581" data-name="パス 581" d="M6.22,14.193l-.074.173L6.762,12.9a4.885,4.885,0,0,1-.382.641l.962-1.246c-.666.8-1.566,1.332-2.294,2.06a12.666,12.666,0,0,0-2.985,5.489,66.909,66.909,0,0,0-1.85,8.387A4.62,4.62,0,0,0,.1,30.683a4.62,4.62,0,0,0,.73,2.3,6.292,6.292,0,0,0,3.688,2.837A6.25,6.25,0,0,0,9.266,35.2,5.994,5.994,0,0,0,12.1,31.51c.259-1.677.58-3.355.962-5.008A30.947,30.947,0,0,1,14.4,21.8l-.617,1.468a6.249,6.249,0,0,1,.567-1.011L13.386,23.5a12.828,12.828,0,0,1,1.875-1.69,10.39,10.39,0,0,0,2.849-4.342,6.209,6.209,0,0,0-.617-4.749,6.375,6.375,0,0,0-3.688-2.837,6.25,6.25,0,0,0-4.749.617l-1.246.962a6.165,6.165,0,0,0-1.59,2.732Z" transform="translate(0.014 2.274)" fill="#54777d"/>
        <path id="パス_582" data-name="パス 582" d="M1.089,29.218c-.21,2.331.148,4.675-.16,7.006l.222-1.64a9.281,9.281,0,0,1-.567,2.158A4.62,4.62,0,0,0,.472,39.2,4.62,4.62,0,0,0,1.2,41.491a6.292,6.292,0,0,0,3.688,2.837,6.25,6.25,0,0,0,4.749-.617l1.246-.962a6.164,6.164,0,0,0,1.591-2.726,14.669,14.669,0,0,0,.789-3.8,17.323,17.323,0,0,0,.136-2.257c0-1.579-.111-3.17.025-4.749a4.655,4.655,0,0,0-.53-2.381,4.662,4.662,0,0,0-1.27-1.986,6.233,6.233,0,0,0-4.366-1.8,6.377,6.377,0,0,0-4.366,1.8L1.927,26.1a6.122,6.122,0,0,0-.839,3.108h0Z" transform="translate(0.1 5.392)" fill="#54777d"/>
        <path id="パス_583" data-name="パス 583" d="M3.6,31.425l.086.21-.617-1.468A5.775,5.775,0,0,1,3.4,31.45l-.222-1.64a9.715,9.715,0,0,1-.025,2.467l.222-1.64c-.21,1.468-.654,2.9-.888,4.366a19.458,19.458,0,0,0-.358,3.589A20.358,20.358,0,0,1,2.2,40.885l.222-1.64a4.448,4.448,0,0,1-.148.7A6.371,6.371,0,0,0,2.886,44.7a6.292,6.292,0,0,0,3.688,2.837,6.25,6.25,0,0,0,4.749-.617,6.4,6.4,0,0,0,2.837-3.688,11.533,11.533,0,0,0,.358-3.787A13.464,13.464,0,0,1,14.555,37l-.222,1.64c.271-1.862.789-3.676,1.048-5.55a12.533,12.533,0,0,0,.173-2.96,17.435,17.435,0,0,0-.37-2.516,17.481,17.481,0,0,0-.937-2.418,6.173,6.173,0,0,0-3.688-2.837,6.313,6.313,0,0,0-4.749.617,6.219,6.219,0,0,0-2.837,3.688L2.751,28.3a6.122,6.122,0,0,0,.839,3.108h0Z" transform="translate(0.498 5.184)" fill="#54777d"/>
        <path id="パス_584" data-name="パス 584" d="M16.154,34.832a18.866,18.866,0,0,1,.148-2.353l-.222,1.637A17.514,17.514,0,0,1,17.264,29.8l-.617,1.468a23.9,23.9,0,0,1,1.961-3.515A18.011,18.011,0,0,0,20.854,23a6.371,6.371,0,0,0-.617-4.749,6.172,6.172,0,0,0-8.437-2.22,6.456,6.456,0,0,0-2.837,3.688,8.148,8.148,0,0,1-.37,1.048L9.21,19.3a23.148,23.148,0,0,1-1.677,2.886,26.246,26.246,0,0,0-2.158,4.329A22.3,22.3,0,0,0,3.82,34.832,6.42,6.42,0,0,0,5.62,39.2a6.167,6.167,0,0,0,10.534-4.365Z" transform="translate(0.909 3.565)" fill="#54777d"/>
        <path id="パス_585" data-name="パス 585" d="M20.5,28.234a17.3,17.3,0,0,0,7.179-3.059,30.163,30.163,0,0,1,5.859-3.244l-1.468.617a20.384,20.384,0,0,1,5.069-1.6l-1.64.222a11.816,11.816,0,0,1,1.32-.062,6.226,6.226,0,0,0,6.167-6.167A6.352,6.352,0,0,0,36.817,8.77c-3.885-.062-7.413,1.542-10.879,3.1a20.687,20.687,0,0,0-3.7,2.1A19.326,19.326,0,0,1,18.55,16.2l1.468-.617a13.845,13.845,0,0,1-2.8.765A6.163,6.163,0,0,0,15.75,27.617a7.089,7.089,0,0,0,4.749.617h0Z" transform="translate(2.978 2.06)" fill="#54777d"/>
        <path id="パス_586" data-name="パス 586" d="M27.145,26.585A18.5,18.5,0,0,1,30.6,24.168l-1.468.617a4.526,4.526,0,0,1,.826-.222l-1.64.222a4.168,4.168,0,0,1,.876.037l-1.64-.222a38.712,38.712,0,0,0,5.476.58c1.394.025,2.788-.037,4.181-.1l-1.64-12.112a8.965,8.965,0,0,0-4.206,1.554,6.236,6.236,0,0,0-2.565,5.07,6.355,6.355,0,0,0,3.2,5.5,6.566,6.566,0,0,0,4.749.617,6.3,6.3,0,0,0,3.688-2.837,6.216,6.216,0,0,0,.617-4.749,6.1,6.1,0,0,0-2.837-3.688l-.111-.049,2.837,3.688-.049-.123v3.281l.037-.136L39.34,23.823l.1-.086-2.726,1.591a12.092,12.092,0,0,1,2.109-.444,6.127,6.127,0,0,0,3.688-2.837,6.325,6.325,0,0,0,.728-3.935,6.132,6.132,0,0,0-6.056-5.353,39.935,39.935,0,0,1-7.08-.111l1.64.222a20.513,20.513,0,0,0-3.232-.419,9.706,9.706,0,0,0-4.44,1.221,21.94,21.94,0,0,0-3.17,2.282,4.56,4.56,0,0,0-1.727,1.591,4.586,4.586,0,0,0-1.1,2.1A6.313,6.313,0,0,0,18.7,24.39a6.219,6.219,0,0,0,3.688,2.837,5.877,5.877,0,0,0,4.749-.617h0Z" transform="translate(4.189 2.919)" fill="#54777d"/>
        <path id="パス_587" data-name="パス 587" d="M35.209,25.451c5.032-1.1,10.065-2.208,15.109-3.269.666-.136,1.332-.247,1.986-.4,1.32-.284-.814,0,.654-.1.567-.037,1.135-.086,1.714-.086.37,0,1.739.1.641-.049a15.3,15.3,0,0,1,3.441,1.011c.592.234,1.172.481,1.764.715-1.011-.419.086.037.481.21.962.432,1.924.888,2.862,1.394.456.259.913.518,1.357.8.3.185.58.382.863.592-.481-.382-.555-.432-.21-.16.826.814,1.628,1.579,2.381,2.467,1.122,1.332-.7-.974.333.432.333.456.666.9,1,1.357,2.9,3.922,6.056,7.758,8.412,12.051a6.213,6.213,0,0,0,8.437,2.208,6.386,6.386,0,0,0,2.208-8.437c-2.529-4.613-5.97-8.757-9.1-12.976A32.739,32.739,0,0,0,73.976,16.9a31.2,31.2,0,0,0-7.24-4.28c-2.627-1.135-5.316-2.479-8.141-2.973a27.7,27.7,0,0,0-10.126.358c-5.538,1.048-11.027,2.368-16.528,3.565a6.213,6.213,0,0,0-4.3,7.586,6.308,6.308,0,0,0,7.586,4.3h0Z" transform="translate(6.411 2.191)" fill="#54777d"/>
        <path id="パス_588" data-name="パス 588" d="M74.843,37.12c0,.74.012,1.48,0,2.22,0,.691.012,1.394-.049,2.084l.086-.617a2.331,2.331,0,0,1-.062.284l.234-.555s-.049.111-.086.173l.358-.469a.655.655,0,0,1-.136.136l.469-.358-.086.049.555-.234a.924.924,0,0,1-.2.062l.617-.086h-.21l.617.086a.648.648,0,0,1-.21-.049l.555.234a2.676,2.676,0,0,1-.407-.234l.469.358c-.345-.271-.678-.567-1.048-.814a6.047,6.047,0,0,0-1.27-.617,8.716,8.716,0,0,0-2.183-.382l.617.086a2.331,2.331,0,0,1-.506-.123l.555.234a1.633,1.633,0,0,1-.173-.1l.469.358a1.542,1.542,0,0,1-.148-.148l.358.469a6.349,6.349,0,0,0-.74-1.1,3.011,3.011,0,0,0-1.172-.7,4.518,4.518,0,0,0-1.073-.1l.617.086-.086-.037.555.234-.074-.062.469.358-.062-.074.358.469a1.909,1.909,0,0,1-.1-.185l.234.555a17.9,17.9,0,0,1-.962-3.651,2.309,2.309,0,0,0-4.219-.555,2.6,2.6,0,0,0-.234,1.776,18.983,18.983,0,0,0,.654,2.751,8.858,8.858,0,0,0,.617,1.591,2.688,2.688,0,0,0,1.27,1.122,3.412,3.412,0,0,0,1.357.222l-.617-.086.074.025-.555-.234.074.037-.469-.358a.623.623,0,0,1,.111.1l-.358-.469c.123.16.2.358.308.53a3.441,3.441,0,0,0,1.147,1.122,5.819,5.819,0,0,0,2.381.518l-.617-.086a4.264,4.264,0,0,1,.962.259l-.555-.234a4.058,4.058,0,0,1,.863.506l-.469-.358a7.754,7.754,0,0,0,1.15.861,3.238,3.238,0,0,0,2.294.333,3.119,3.119,0,0,0,2.27-2.933,41.65,41.65,0,0,0,.049-4.3,2.357,2.357,0,0,0-2.319-2.319A2.332,2.332,0,0,0,74.843,37.1h0Z" transform="translate(15.769 7.777)" fill="#54777d"/>
        <path id="パス_589" data-name="パス 589" d="M1.574,40.279l.284,2.381.136,1.135a5.6,5.6,0,0,1,.074,1.11l.086-.617a2.4,2.4,0,0,1-.074.284l.234-.555a8.631,8.631,0,0,0-.555,1.122,2.829,2.829,0,0,0,.21,2.171,3.1,3.1,0,0,0,2.677,1.542A3.325,3.325,0,0,0,7.31,47.47c.382-.493.641-1.073,1.024-1.566l-.358.469a5.006,5.006,0,0,1,.814-.8l-.469.358a7.15,7.15,0,0,1,.641-.419,2.338,2.338,0,0,0,.826-3.17,2.363,2.363,0,0,0-3.17-.826A6.609,6.609,0,0,0,4.781,42.98a8.341,8.341,0,0,0-.826,1.135c-.148.259-.3.53-.469.777l.358-.469a2.449,2.449,0,0,1-.247.259l.469-.358a1.209,1.209,0,0,1-.271.16l.555-.234a.925.925,0,0,1-.2.049l.617-.086H4.5l.617.086a1.535,1.535,0,0,1-.2-.049l.555.234s-.111-.062-.173-.1l.469.358a.732.732,0,0,1-.123-.136L6,45.077a.856.856,0,0,0-.06-.111l.234.555A.5.5,0,0,1,6.15,45.4l.086.617v-.148l-.086.617a.975.975,0,0,1,.049-.16l-.234.555c.086-.185.222-.345.308-.53a3.977,3.977,0,0,0,.407-1.542,9.337,9.337,0,0,0-.123-1.431l-.358-3.1a2.546,2.546,0,0,0-.678-1.64,2.323,2.323,0,0,0-3.281,0,2.225,2.225,0,0,0-.678,1.64h0Z" transform="translate(0.379 8.873)" fill="#54777d"/>
      </g>
      <g id="_-2" transform="translate(2.013 6.628)">
        <path id="パス_590" data-name="パス 590" d="M76.371,66.077q-.2,0-.412-.017l.062-.747a2.518,2.518,0,0,0,2.307-.82c.757-.908,1.052-2.591.855-4.868a21.352,21.352,0,0,0-.559-3.288l-.043-.159.088-.139a6.4,6.4,0,0,0,.725-6.275A6.821,6.821,0,0,0,77.656,47.4l.467-.587a7.514,7.514,0,0,1,1.958,2.642,7.092,7.092,0,0,1-.69,6.84c.253,1.011,1.463,6.334-.486,8.672A3.131,3.131,0,0,1,76.371,66.077Z" transform="translate(15.741 4.382)" fill="#54777d"/>
        <path id="パス_591" data-name="パス 591" d="M7.447,72.657a2.751,2.751,0,0,1-1.983-.84c-2.841-2.8-2.331-11.973-2.242-13.284C1.6,56.365.969,54.382,1.35,52.636A4.8,4.8,0,0,1,3.59,49.59l.353.662-.176-.331.177.33a4.1,4.1,0,0,0-1.863,2.556c-.333,1.55.28,3.362,1.823,5.385l.087.114-.011.142a46.348,46.348,0,0,0-.029,5.45c.213,3.728.919,6.282,2.039,7.385a2.009,2.009,0,0,0,1.676.614l.069.747Q7.59,72.657,7.447,72.657Z" transform="translate(-1.619 5.038)" fill="#54777d"/>
        <path id="線_205" data-name="線 205" d="M11.964.375H0v-.75H11.964Z" transform="translate(6.551 52.836)" fill="#54777d"/>
        <path id="パス_592" data-name="パス 592" d="M36.856,48.723l-.232-.713a20.836,20.836,0,0,1,3.842-.756,20.037,20.037,0,0,1,8.357.757l-.238.711A18.87,18.87,0,0,0,40.567,48,20.53,20.53,0,0,0,36.856,48.723Z" transform="translate(6.58 4.47)" fill="#54777d"/>
        <path id="線_206" data-name="線 206" d="M10.232.535-.006.375l.012-.75,10.237.16Z" transform="translate(80.359 51.652)" fill="#54777d"/>
        <path id="パス_593" data-name="パス 593" d="M47.759,107.789h-.3a29.435,29.435,0,0,1-10.611-2.048,32.931,32.931,0,0,1-12.426-9.077A59.273,59.273,0,0,1,18.9,88.873l-.264-.409a91.763,91.763,0,0,1-6.087-10.551C10.232,73.127,8.7,69.966,8.024,65.522a30.582,30.582,0,0,1,.421-11.274l-1.363-2.88.678-.321,1.474,3.114-.029.126a29.854,29.854,0,0,0-.439,11.122c.663,4.332,2.172,7.453,4.456,12.178a91.143,91.143,0,0,0,6.042,10.471l.264.408a58.86,58.86,0,0,0,5.452,7.7,32.228,32.228,0,0,0,12.144,8.882,28.688,28.688,0,0,0,10.342,2,31.4,31.4,0,0,0,7.118-.752,48.9,48.9,0,0,0,11.653-4.722,38.9,38.9,0,0,0,7.1-5.192c3.676-3.39,8.4-11.451,11.722-17.616,2.389-4.439,4.4-8.56,5.576-11.068l.036-.439c.019-.23,1.886-23,1.886-24.847h.75c0,1.579-1.277,17.406-1.732,23,.2-.378.3-.509.537-.5l.248.014.087.236c.058.16.071.2-.481,1.436-.345.773-.832,1.817-1.37,2.94-.824,1.718-2.528,5.2-4.686,9.23-3.4,6.35-8.257,14.655-12.063,18.165a39.644,39.644,0,0,1-7.238,5.292,49.655,49.655,0,0,1-11.839,4.8h-.016a32.172,32.172,0,0,1-6.995.769Z" transform="translate(-0.264 3.283)" fill="#54777d"/>
        <path id="パス_594" data-name="パス 594" d="M19.331,41.318l-.282-.7a31.2,31.2,0,0,1,6.443-1.674,24.316,24.316,0,0,1,6.026-.209,14.771,14.771,0,0,1,6.131,1.909l-.383.645a14.03,14.03,0,0,0-5.822-1.807,23.568,23.568,0,0,0-5.839.2,30.99,30.99,0,0,0-6.274,1.636Z" transform="translate(2.483 2.492)" fill="#54777d"/>
        <path id="パス_595" data-name="パス 595" d="M50.091,40.678l-.282-.7A31.2,31.2,0,0,1,56.252,38.3a24.316,24.316,0,0,1,6.026-.209A14.771,14.771,0,0,1,68.409,40l-.383.645a14.025,14.025,0,0,0-5.812-1.806,23.544,23.544,0,0,0-5.832.2,31.066,31.066,0,0,0-6.291,1.635Z" transform="translate(9.663 2.343)" fill="#54777d"/>
        <path id="パス_596" data-name="パス 596" d="M43.185,67.77A7.026,7.026,0,0,1,38,65.577a5.123,5.123,0,0,1-4.076-2.755,9.081,9.081,0,0,1-1.022-2.6l.981-.193a8.2,8.2,0,0,0,.915,2.3,4.078,4.078,0,0,0,3.456,2.253l.237.007.145.187a5.348,5.348,0,0,0,1.39,1.139,6.3,6.3,0,0,0,3.987.8l2.38-1.072h.1c.045,0,4.562-.1,6.248-1.962a2.212,2.212,0,0,0,.589-1.752l1-.083a3.2,3.2,0,0,1-.844,2.507c-1.841,2.033-6.119,2.262-6.867,2.287L44.282,67.7l-.075.009a8.338,8.338,0,0,1-1.022.061Z" transform="translate(5.798 7.421)" fill="#54777d"/>
        <path id="パス_597" data-name="パス 597" d="M40.718,70.829h0c6.9,0,19.177,1.2,19.3,1.213l.436.043.015.437a4.428,4.428,0,0,1-1.657,3.036c-2.119,2.053-5.907,3.667-11.259,4.8a21.347,21.347,0,0,1-4.394.476A17.331,17.331,0,0,1,32.1,76.947a16.374,16.374,0,0,1-3.58-3.9l-.2-.335.374-.373.115-.037A41.648,41.648,0,0,1,39.1,70.855C39.579,70.838,40.125,70.829,40.718,70.829Zm18.661,2.156c-2.452-.231-12.632-1.156-18.66-1.156h0c-.581,0-1.115.009-1.587.026a45.457,45.457,0,0,0-9.381,1.219,16.824,16.824,0,0,0,3.009,3.12,16.329,16.329,0,0,0,10.4,3.637,20.346,20.346,0,0,0,4.188-.454c3.478-.734,8.149-2.1,10.653-4.426a4.784,4.784,0,0,0,1.378-1.966Z" transform="translate(4.761 10.035)" fill="#54777d"/>
        <path id="パス_598" data-name="パス 598" d="M39.273,24.635h-1c0-4.633-1.631-15.641-1.647-15.751l.989-.147C37.682,9.191,39.273,19.928,39.273,24.635Z" transform="translate(6.668 -4.558)" fill="#54777d"/>
        <path id="パス_599" data-name="パス 599" d="M35.255,25.612c-1.143-3.921-6.745-13.967-6.8-14.068l.873-.488c.233.417,5.715,10.247,6.889,14.276Z" transform="translate(4.747 -3.977)" fill="#54777d"/>
        <path id="線_207" data-name="線 207" d="M2.35,12.153-.487.115l.974-.23L3.324,11.924Z" transform="translate(28.679 9.691)" fill="#54777d"/>
        <path id="パス_600" data-name="パス 600" d="M22.36,26.643,15.922,24.8l.275-.961,3.479,1-3.307-4.227L17.157,20Z" transform="translate(1.752 -1.876)" fill="#54777d"/>
        <path id="線_208" data-name="線 208" d="M6.053,5.808-.324.381.324-.381,6.7,5.046Z" transform="translate(0.803 13.231)" fill="#54777d"/>
        <path id="線_209" data-name="線 209" d="M5.374,4.655-.3.4.3-.4,5.974,3.855Z" transform="translate(9.067 29.525)" fill="#54777d"/>
        <path id="線_210" data-name="線 210" d="M6.745,6.748-.335.372l.67-.744L7.415,6Z" transform="translate(6.477 33.311)" fill="#54777d"/>
        <path id="線_211" data-name="線 211" d="M.5,8.772l-1-.055L-.018-.027l1,.055Z" transform="translate(54.889 8.976)" fill="#54777d"/>
        <path id="線_212" data-name="線 212" d="M.49,12.621l-.979-.2L2.1-.1l.98.2Z" transform="translate(63.4 5.67)" fill="#54777d"/>
        <path id="線_213" data-name="線 213" d="M.4,4.917l-.8-.608L3.143-.3l.794.6Z" transform="translate(71.664 17.832)" fill="#54777d"/>
        <path id="パス_601" data-name="パス 601" d="M63.809,31.7l-.9-1.787c.87-.437,1.754-2.033,2.427-4.38a28.963,28.963,0,0,0,.8-3.831l1.984.25a30.484,30.484,0,0,1-.859,4.108C66.4,29.086,65.24,30.984,63.809,31.7Z" transform="translate(12.793 -1.519)" fill="#54777d"/>
        <path id="パス_602" data-name="パス 602" d="M67.989,35.791l-.839-1.816c2.707-1.25,4.466-4.7,4.484-4.733l1.788.9C73.339,30.3,71.34,34.243,67.989,35.791Z" transform="translate(13.776 0.316)" fill="#54777d"/>
        <path id="パス_603" data-name="パス 603" d="M2.083,19.881c-.681-2.874-.295-5.134,1.148-6.718,2.5-2.749,7.383-2.545,8.913-2.4a7.137,7.137,0,0,1,3.409-4.776,11.171,11.171,0,0,1,7.012-.973,19.587,19.587,0,0,1,3.733.854l-.338.941h0A18.96,18.96,0,0,0,22.412,6a10.616,10.616,0,0,0-6.37.856A6.324,6.324,0,0,0,13.026,11.4l-.091.464-.469-.066c-.059-.008-5.925-.789-8.5,2.039-1.206,1.325-1.513,3.28-.913,5.812Z" transform="translate(-1.47 -5.363)" fill="#54777d"/>
        <path id="パス_604" data-name="パス 604" d="M31.345,95.223a28.8,28.8,0,0,0,8.671-7.031l-1.209-.937-2.479,4.292a.782.782,0,0,0,.456,1.135c1.283.37,3.577.925,4.749.111.333-.234.555-.715.851-1a6.173,6.173,0,0,1,4.231-1.7l-.74-.974a3.171,3.171,0,0,0,3.614,3.811c1.283-.222,1.912-1.2,2.8-2.035a7.339,7.339,0,0,1,4.564-1.961l-.666-1.159c-.567.974-1.529,2.6-.518,3.6s3.01-.382,3.787.555l-.2-.752c-.1.6-1.677,1.3-2.146,1.591l-2.047,1.32c-.641.407-1.27.876-1.949,1.233a4.549,4.549,0,0,1-2.775.284c-2.825-.234-5.18,1.147-7.45,2.664l1.061.271c-1.159-2.1-3.663-1.8-5.587-1.122a5.76,5.76,0,0,1-2.467.629c-.789-.16-.839-.925-1.11-1.529a6.521,6.521,0,0,0-2.356-2.652l-.185,1.406c1.554-.407,3.108-.9,4.675-1.233.728-.148,1.517-.358,2,.3a9.578,9.578,0,0,1,.6,2.714A.777.777,0,0,0,40.8,97.4c2.047-2.109,4.5-2.788,7.364-2.936,2.171-.111,4.354-.2,6.155-1.542a.788.788,0,0,0,.16-1.209A3.107,3.107,0,0,0,51.3,90.93a.792.792,0,0,0-.567.74,3.371,3.371,0,0,0,4.046,2.985c.974-.173.567-1.665-.407-1.492a1.811,1.811,0,0,1-2.1-1.5l-.567.74a1.551,1.551,0,0,1,1.677.382l.16-1.209c-2.2,1.64-5.045,1.172-7.6,1.517A10.63,10.63,0,0,0,39.72,96.3l1.28.341c-.407-1.85-.284-4.058-2.578-4.28-2.121-.21-4.576.888-6.586,1.431a.778.778,0,0,0-.185,1.406c1.258.851,1.566,1.887,2.2,3.182A2,2,0,0,0,35.5,99.564c1.973.271,5.822-2.615,7.129-.234a.78.78,0,0,0,1.061.271,18.066,18.066,0,0,1,3.589-2.035,9.917,9.917,0,0,1,4.169-.308c2.368.062,4.354-1.8,6.241-3.01.974-.629,3.873-1.8,2.886-3.4a1.919,1.919,0,0,0-1.936-.826c-.382.037-.9.333-1.258.284-1.073-.123-.111-1.258.173-1.739a.777.777,0,0,0-.666-1.159A9.034,9.034,0,0,0,52.226,89a12.589,12.589,0,0,0-1.739,1.6,1.866,1.866,0,0,1-1.579.8,1.559,1.559,0,0,1-1.517-1.875.785.785,0,0,0-.74-.974,7.911,7.911,0,0,0-6.29,3.318l.666-.382a9.2,9.2,0,0,1-3.8-.284l.456,1.135,2.479-4.292c.419-.728-.629-1.628-1.209-.937a27.823,27.823,0,0,1-8.363,6.784c-.876.469-.1,1.8.777,1.332h0Z" transform="translate(5.055 13.66)" fill="#54777d"/>

<svg xmlns="http://www.w3.org/2000/svg" width="98.413" height="120" viewBox="0 0 98.413 120">
  <g id="グループ_369" data-name="グループ 369" transform="translate(-1446.461 -792)">
    <g id="アセット_8" data-name="アセット 8" transform="translate(1446.461 792)">
      <g id="_イヤー_1-2" transform="translate(20.763 4.98)">
        <path id="パス_568" data-name="パス 568" d="M20.485,50.684l-.551-.835a17.808,17.808,0,0,1,5.36-2.167,16.016,16.016,0,0,1,5.469-.337,14.544,14.544,0,0,1,6.246,2.267l-.542.84a13.552,13.552,0,0,0-5.819-2.114,15.02,15.02,0,0,0-5.128.319A17.042,17.042,0,0,0,20.485,50.684Z" transform="translate(-16.029 6.178)" fill="#646364"/>
        <path id="パス_569" data-name="パス 569" d="M65.329,50.9a8.162,8.162,0,0,0-4.469-2.334,12.413,12.413,0,0,0-4.713.156A19.843,19.843,0,0,0,50.9,50.662l-.5-.865a20.559,20.559,0,0,1,5.543-2.052,13.4,13.4,0,0,1,5.093-.162A9.143,9.143,0,0,1,66.042,50.2Z" transform="translate(-8.923 6.216)" fill="#646364"/>
        <path id="楕円形_90" data-name="楕円形 90" d="M12.581-.5a14.58,14.58,0,0,1,9.212,3.111,9.811,9.811,0,0,1,3.869,7.627,9.811,9.811,0,0,1-3.869,7.627,14.58,14.58,0,0,1-9.212,3.111,14.58,14.58,0,0,1-9.212-3.111A9.811,9.811,0,0,1-.5,10.237,9.811,9.811,0,0,1,3.369,2.611,14.58,14.58,0,0,1,12.581-.5Zm0,20.475c6.661,0,12.081-4.368,12.081-9.737S19.242.5,12.581.5.5,4.868.5,10.237,5.919,19.975,12.581,19.975Z" transform="translate(0 46.96)" fill="#646364"/>
        <path id="楕円形_91" data-name="楕円形 91" d="M12.581-.5a14.58,14.58,0,0,1,9.212,3.111,9.811,9.811,0,0,1,3.869,7.627,9.811,9.811,0,0,1-3.869,7.627,14.58,14.58,0,0,1-9.212,3.111,14.58,14.58,0,0,1-9.212-3.111A9.811,9.811,0,0,1-.5,10.237,9.811,9.811,0,0,1,3.369,2.611,14.58,14.58,0,0,1,12.581-.5Zm0,20.475c6.661,0,12.081-4.368,12.081-9.737S19.242.5,12.581.5.5,4.868.5,10.237,5.919,19.975,12.581,19.975Z" transform="translate(37.558 47.071)" fill="#646364"/>
        <path id="パス_570" data-name="パス 570" d="M35.08,10.3a47.648,47.648,0,0,0,2.529,11.039c.333.925,1.825.53,1.492-.407A46.4,46.4,0,0,1,36.634,10.3a.785.785,0,0,0-.765-.765.768.768,0,0,0-.765.765h0Z" transform="translate(-12.558 -2.74)" fill="#303031"/>
        <path id="パス_571" data-name="パス 571" d="M78.2,20.3A2.805,2.805,0,0,0,75.2,18.459l-.488.1-.1-.488a17.244,17.244,0,0,0-1.905-5.358A6.919,6.919,0,0,0,70.458,10.3,4.031,4.031,0,0,0,67.452,9.7L67,9.837l-.153-.45c-.92-2.66-2.565-4.248-4.888-4.72a7.468,7.468,0,0,0-3.243.077l-.284-.959a8.427,8.427,0,0,1,3.726-.1A7.355,7.355,0,0,1,67.64,8.658a5.24,5.24,0,0,1,3.309.765c2.14,1.291,3.672,3.986,4.559,8.011a3.823,3.823,0,0,1,1.063.142A3.939,3.939,0,0,1,79.1,19.882Z" transform="translate(-7.075 -4.027)" fill="#404143"/>
      </g>
      <g id="_" transform="translate(0 0)">
        <path id="パス_572" data-name="パス 572" d="M23.368,21.494Q38.317,19.9,53.34,19.335c3.219-.123,6.315-2.751,6.167-6.167C59.36,9.936,56.794,6.865,53.34,7q-15.023.574-29.972,2.158c-3.195.345-6.327,2.59-6.167,6.167.136,3.047,2.726,6.537,6.167,6.167Z" transform="translate(4.031 1.646)" fill="#404143"/>
        <path id="パス_573" data-name="パス 573" d="M23.775,17.929a47.126,47.126,0,0,1,7.45-4.3l-1.468.617a20.508,20.508,0,0,1,4.971-1.369l-1.64.222a27.021,27.021,0,0,1,4.354-.185,6.209,6.209,0,0,0,6.167-6.167A6.309,6.309,0,0,0,37.441.574,26.685,26.685,0,0,0,26.747,2.227a49.65,49.65,0,0,0-9.2,5.045,6.531,6.531,0,0,0-2.837,3.688,6.313,6.313,0,0,0,.617,4.749c1.727,2.677,5.563,4.12,8.437,2.208h0Z" transform="translate(3.402 0.142)" fill="#404143"/>
        <path id="パス_574" data-name="パス 574" d="M30.191,14.585l9.053-1.307c.234-.037,2.64-.358,1.27-.185.765-.086,1.517-.173,2.282-.21a15.9,15.9,0,0,1,1.714,0c.395.025.777.049,1.172.1-.666-.1-.641-.086.1.025,2.96.481,5.871.691,8.856.925a11.611,11.611,0,0,1,1.455.136c-1.677-.37.407.123.715.2s.6.16.9.259c.641.234.592.21-.185-.1.419-.025,1.27.765,1.591,1.011,2.578,1.949,7.006.493,8.437-2.208,1.714-3.244.543-6.352-2.208-8.437s-6.155-2.714-9.5-3.084c-1.307-.148-2.615-.2-3.922-.284-.654-.037-1.3-.111-1.949-.16-.851-.062.925.173-.049,0-.481-.086-.962-.148-1.455-.222A29.331,29.331,0,0,0,42.785.573c-1.912.086-3.762.407-5.624.666L26.9,2.719c-3.207.456-5.242,4.7-4.3,7.586,1.135,3.5,4.157,4.8,7.586,4.3h0Z" transform="translate(5.237 0.143)" fill="#404143"/>
        <path id="パス_575" data-name="パス 575" d="M48.058,18.554a25.621,25.621,0,0,1,3.885.185l-1.64-.222a26.157,26.157,0,0,1,6.611,1.813l-1.468-.617a26.073,26.073,0,0,1,5.4,3.17L59.6,21.921a25.1,25.1,0,0,1,2.874,2.615,6.217,6.217,0,0,0,8.72,0,6.4,6.4,0,0,0,0-8.72A31.089,31.089,0,0,0,48.058,6.232c-3.219.086-6.315,2.775-6.167,6.167a6.177,6.177,0,0,0,6.167,6.167h0Z" transform="translate(9.794 1.465)" fill="#404143"/>
        <path id="パス_576" data-name="パス 576" d="M40.877,12.041c4.144.555,8.252,1.27,12.334,2.183,1.862.407,3.737.814,5.563,1.369.432.136.851.284,1.27.432.395.148.333.123-.173-.074l.518.247c.925.506,1.85,1.011,2.751,1.554.728.432,1.455.876,2.171,1.332.358.222.7.469,1.048.691,1.307.851-.506-.506.148.086a21.849,21.849,0,0,1,1.949,1.912c-.974-1.135.715.9.617,1.246l-.234-.58c.086.222.173.456.247.691.136.395.247.777.345,1.184s.2.8.271,1.209c.136.691.259.9.049.1a25.966,25.966,0,0,1,.321,5.538c.074,3.219,2.788,6.315,6.167,6.167a6.2,6.2,0,0,0,6.167-6.167c-.1-4.181-.3-8.535-1.875-12.445-1.961-4.872-5.464-8.1-9.867-10.817A45.285,45.285,0,0,0,64.078,4.43a42.825,42.825,0,0,0-6.155-1.788Q51.1,1.051,44.133.138a6.817,6.817,0,0,0-4.749.617,6.292,6.292,0,0,0-2.837,3.688c-.654,2.9.888,7.129,4.3,7.586h0Z" transform="translate(8.514 0.01)" fill="#404143"/>
        <path id="パス_577" data-name="パス 577" d="M80.086,40.726a10.285,10.285,0,0,0,1.209-6.155,36.064,36.064,0,0,0-.888-5.365,14.775,14.775,0,0,0-2.282-4.81c-.851-1.159-1.764-2.294-2.64-3.441a4.56,4.56,0,0,0-1.591-1.727,4.586,4.586,0,0,0-2.1-1.1,6.313,6.313,0,0,0-4.749.617,6.219,6.219,0,0,0-2.837,3.688,5.822,5.822,0,0,0,.617,4.749A27.6,27.6,0,0,1,68.7,32.721l-.617-1.468a19.764,19.764,0,0,1,1.048,4.638l-.222-1.64a8.539,8.539,0,0,1,.074,2.171l.222-1.64a4.641,4.641,0,0,1-.21.814l.617-1.468a2.186,2.186,0,0,1-.185.382,6.437,6.437,0,0,0-.617,4.749,6.3,6.3,0,0,0,2.837,3.688,6.172,6.172,0,0,0,8.437-2.22h0Z" transform="translate(14.954 4.196)" fill="#404143"/>
        <path id="パス_578" data-name="パス 578" d="M70.648,30.314a6.167,6.167,0,1,0-6.167-6.167,6.234,6.234,0,0,0,6.167,6.167Z" transform="translate(15.067 4.21)" fill="#404143"/>
        <path id="パス_579" data-name="パス 579" d="M18.847,7.487a3.583,3.583,0,0,1-.333.506l.962-1.246a4.023,4.023,0,0,1-.567.555l1.246-.962a5.99,5.99,0,0,1-1.048.617l1.468-.617a29.956,29.956,0,0,1-4.527,1,12.372,12.372,0,0,0-6.155,3.737c-.974,1.073-1.924,2.084-2.985,3.071A9.85,9.85,0,0,0,3.54,21.289a6.42,6.42,0,0,0,1.8,4.366,6.09,6.09,0,0,0,4.366,1.8,6.284,6.284,0,0,0,6.167-6.167c0-.123,0-.259.012-.382l-.222,1.64a2.969,2.969,0,0,1,.21-.715L15.258,23.3a3.831,3.831,0,0,1,.506-.8L14.8,23.744c.728-.876,1.665-1.554,2.442-2.393a22.765,22.765,0,0,1,2.615-2.726l-1.246.962a5.561,5.561,0,0,1,1.011-.592l-1.468.617c1.542-.641,3.232-.617,4.823-1.073A10.714,10.714,0,0,0,29.5,13.7a6.378,6.378,0,0,0,.617-4.749,6.172,6.172,0,0,0-11.273-1.48h0Z" transform="translate(0.843 1.061)" fill="#404143"/>
        <path id="パス_580" data-name="パス 580" d="M22.653,9.622c-2.1,2.2-3.787,4.773-6.192,6.673l1.246-.962c-2.109,1.616-4.527,2.751-6.66,4.329A6.722,6.722,0,0,0,8.209,23.35,6.313,6.313,0,0,0,8.826,28.1a6.219,6.219,0,0,0,3.688,2.837,5.939,5.939,0,0,0,4.749-.617c1.159-.851,2.393-1.579,3.626-2.319a37.522,37.522,0,0,0,4.625-3.244c2.245-1.85,3.848-4.317,5.846-6.4a6.4,6.4,0,0,0,1.8-4.366A6.175,6.175,0,0,0,22.628,9.622h0Z" transform="translate(1.885 1.837)" fill="#404143"/>
        <path id="パス_581" data-name="パス 581" d="M6.22,14.193l-.074.173L6.762,12.9a4.885,4.885,0,0,1-.382.641l.962-1.246c-.666.8-1.566,1.332-2.294,2.06a12.666,12.666,0,0,0-2.985,5.489,66.909,66.909,0,0,0-1.85,8.387A4.62,4.62,0,0,0,.1,30.683,4.62,4.62,0,0,0,.83,32.978a6.292,6.292,0,0,0,3.688,2.837A6.25,6.25,0,0,0,9.266,35.2,5.994,5.994,0,0,0,12.1,31.51c.259-1.677.58-3.355.962-5.008A30.947,30.947,0,0,1,14.4,21.8l-.617,1.468a6.249,6.249,0,0,1,.567-1.011L13.386,23.5a12.828,12.828,0,0,1,1.875-1.69,10.39,10.39,0,0,0,2.849-4.342,6.209,6.209,0,0,0-.617-4.749,6.375,6.375,0,0,0-3.688-2.837,6.25,6.25,0,0,0-4.749.617l-1.246.962A6.165,6.165,0,0,0,6.22,14.193h0Z" transform="translate(0.014 2.274)" fill="#404143"/>
        <path id="パス_582" data-name="パス 582" d="M1.089,29.218c-.21,2.331.148,4.675-.16,7.006l.222-1.64a9.281,9.281,0,0,1-.567,2.158A4.62,4.62,0,0,0,.472,39.2,4.62,4.62,0,0,0,1.2,41.491a6.292,6.292,0,0,0,3.688,2.837,6.25,6.25,0,0,0,4.749-.617l1.246-.962a6.164,6.164,0,0,0,1.591-2.726,14.669,14.669,0,0,0,.789-3.8,17.323,17.323,0,0,0,.136-2.257c0-1.579-.111-3.17.025-4.749a4.655,4.655,0,0,0-.53-2.381,4.662,4.662,0,0,0-1.27-1.986,6.233,6.233,0,0,0-4.366-1.8,6.377,6.377,0,0,0-4.366,1.8L1.927,26.1a6.122,6.122,0,0,0-.839,3.108h0Z" transform="translate(0.1 5.392)" fill="#404143"/>
        <path id="パス_583" data-name="パス 583" d="M3.6,31.425l.086.21-.617-1.468A5.775,5.775,0,0,1,3.4,31.45l-.222-1.64a9.715,9.715,0,0,1-.025,2.467l.222-1.64c-.21,1.468-.654,2.9-.888,4.366a19.458,19.458,0,0,0-.358,3.589A20.358,20.358,0,0,1,2.2,40.885l.222-1.64a4.448,4.448,0,0,1-.148.7A6.371,6.371,0,0,0,2.886,44.7a6.292,6.292,0,0,0,3.688,2.837,6.25,6.25,0,0,0,4.749-.617,6.405,6.405,0,0,0,2.837-3.688,11.533,11.533,0,0,0,.358-3.787A13.464,13.464,0,0,1,14.555,37l-.222,1.64c.271-1.862.789-3.676,1.048-5.55a12.533,12.533,0,0,0,.173-2.96,17.435,17.435,0,0,0-.37-2.516,17.481,17.481,0,0,0-.937-2.418,6.173,6.173,0,0,0-3.688-2.837,6.313,6.313,0,0,0-4.749.617,6.219,6.219,0,0,0-2.837,3.688L2.751,28.3a6.122,6.122,0,0,0,.839,3.108h0Z" transform="translate(0.498 5.184)" fill="#404143"/>
        <path id="パス_584" data-name="パス 584" d="M16.154,34.832a18.878,18.878,0,0,1,.148-2.356l-.222,1.64A17.514,17.514,0,0,1,17.264,29.8l-.617,1.468a23.9,23.9,0,0,1,1.961-3.515A18.011,18.011,0,0,0,20.854,23a6.371,6.371,0,0,0-.617-4.749,6.172,6.172,0,0,0-8.437-2.22,6.456,6.456,0,0,0-2.837,3.688,8.148,8.148,0,0,1-.37,1.048L9.21,19.3a23.148,23.148,0,0,1-1.677,2.886,26.246,26.246,0,0,0-2.158,4.329A22.3,22.3,0,0,0,3.82,34.832a6.42,6.42,0,0,0,1.8,4.366A6.09,6.09,0,0,0,9.987,41a6.148,6.148,0,0,0,6.167-6.167Z" transform="translate(0.909 3.565)" fill="#404143"/>
        <path id="パス_585" data-name="パス 585" d="M20.5,28.234a17.3,17.3,0,0,0,7.179-3.059,30.163,30.163,0,0,1,5.859-3.244l-1.468.617a20.384,20.384,0,0,1,5.069-1.6l-1.64.222a11.816,11.816,0,0,1,1.32-.062,6.226,6.226,0,0,0,6.167-6.167A6.352,6.352,0,0,0,36.817,8.77c-3.885-.062-7.413,1.542-10.879,3.1a20.687,20.687,0,0,0-3.7,2.1A19.326,19.326,0,0,1,18.55,16.2l1.468-.617a13.845,13.845,0,0,1-2.8.765A6.162,6.162,0,0,0,13.53,19.18a6.172,6.172,0,0,0,2.22,8.437,7.089,7.089,0,0,0,4.749.617h0Z" transform="translate(2.978 2.06)" fill="#404143"/>
        <path id="パス_586" data-name="パス 586" d="M27.145,26.585A18.5,18.5,0,0,1,30.6,24.168l-1.468.617a4.526,4.526,0,0,1,.826-.222l-1.64.222a4.168,4.168,0,0,1,.876.037l-1.64-.222a38.711,38.711,0,0,0,5.476.58c1.394.025,2.788-.037,4.181-.1l-1.64-12.112a8.965,8.965,0,0,0-4.206,1.554A6.236,6.236,0,0,0,28.8,19.592,6.355,6.355,0,0,0,32,25.093a6.566,6.566,0,0,0,4.749.617,6.3,6.3,0,0,0,3.688-2.837,6.216,6.216,0,0,0,.617-4.749,6.1,6.1,0,0,0-2.837-3.688l-.111-.049,2.837,3.688-.049-.123v3.281l.037-.136-1.591,2.726.1-.086-2.726,1.591a12.092,12.092,0,0,1,2.109-.444,6.127,6.127,0,0,0,3.688-2.837,6.325,6.325,0,0,0,.728-3.935,6.132,6.132,0,0,0-6.056-5.353,39.935,39.935,0,0,1-7.08-.111l1.64.222a20.513,20.513,0,0,0-3.232-.419,9.706,9.706,0,0,0-4.44,1.221,21.94,21.94,0,0,0-3.17,2.282,4.56,4.56,0,0,0-1.727,1.591,4.586,4.586,0,0,0-1.1,2.1A6.313,6.313,0,0,0,18.7,24.39a6.219,6.219,0,0,0,3.688,2.837,5.877,5.877,0,0,0,4.749-.617h0Z" transform="translate(4.189 2.919)" fill="#404143"/>
        <path id="パス_587" data-name="パス 587" d="M35.209,25.451c5.032-1.1,10.065-2.208,15.109-3.269.666-.136,1.332-.247,1.986-.395,1.32-.284-.814,0,.654-.1.567-.037,1.135-.086,1.714-.086.37,0,1.739.1.641-.049a15.3,15.3,0,0,1,3.441,1.011c.592.234,1.172.481,1.764.715-1.011-.419.086.037.481.21.962.432,1.924.888,2.862,1.394.456.259.913.518,1.357.8.3.185.58.382.863.592-.481-.382-.555-.432-.21-.16.826.814,1.628,1.579,2.381,2.467,1.122,1.332-.7-.974.333.432.333.456.666.9,1,1.357,2.9,3.922,6.056,7.758,8.412,12.051a6.213,6.213,0,0,0,8.437,2.208,6.386,6.386,0,0,0,2.208-8.437c-2.529-4.613-5.97-8.757-9.1-12.976A32.739,32.739,0,0,0,73.976,16.9a31.2,31.2,0,0,0-7.24-4.28c-2.627-1.135-5.316-2.479-8.141-2.973a27.7,27.7,0,0,0-10.126.358c-5.538,1.048-11.027,2.368-16.528,3.565a6.213,6.213,0,0,0-4.3,7.586,6.308,6.308,0,0,0,7.586,4.3h0Z" transform="translate(6.411 2.191)" fill="#404143"/>
        <path id="パス_588" data-name="パス 588" d="M74.843,37.12c0,.74.012,1.48,0,2.22,0,.691.012,1.394-.049,2.084l.086-.617a2.331,2.331,0,0,1-.062.284l.234-.555s-.049.111-.086.173l.358-.469a.655.655,0,0,1-.136.136l.469-.358-.086.049.555-.234a.924.924,0,0,1-.2.062l.617-.086h-.21l.617.086a.648.648,0,0,1-.21-.049l.555.234a2.676,2.676,0,0,1-.407-.234l.469.358c-.345-.271-.678-.567-1.048-.814a6.047,6.047,0,0,0-1.27-.617,8.716,8.716,0,0,0-2.183-.382l.617.086a2.331,2.331,0,0,1-.506-.123l.555.234a1.634,1.634,0,0,1-.173-.1l.469.358a1.544,1.544,0,0,1-.148-.148l.358.469a6.349,6.349,0,0,0-.74-1.1,3.011,3.011,0,0,0-1.172-.7,4.518,4.518,0,0,0-1.073-.1l.617.086-.086-.037.555.234-.074-.062.469.358-.062-.074.358.469a1.91,1.91,0,0,1-.1-.185l.234.555a17.9,17.9,0,0,1-.962-3.651,2.3,2.3,0,0,0-1.061-1.381,2.307,2.307,0,0,0-3.158.826,2.6,2.6,0,0,0-.234,1.776,18.983,18.983,0,0,0,.654,2.751,8.859,8.859,0,0,0,.617,1.591,2.688,2.688,0,0,0,1.27,1.122,3.412,3.412,0,0,0,1.357.222l-.617-.086.074.025-.555-.234.074.037-.469-.358a.623.623,0,0,1,.111.1l-.358-.469c.123.16.2.358.308.53a3.441,3.441,0,0,0,1.147,1.122,5.819,5.819,0,0,0,2.381.518l-.617-.086a4.264,4.264,0,0,1,.962.259l-.555-.234a4.058,4.058,0,0,1,.863.506l-.469-.358A7.754,7.754,0,0,0,74.867,44a3.238,3.238,0,0,0,2.294.333A3.119,3.119,0,0,0,79.431,41.4a41.651,41.651,0,0,0,.049-4.3,2.357,2.357,0,0,0-2.319-2.319A2.332,2.332,0,0,0,74.843,37.1h0Z" transform="translate(15.769 7.777)" fill="#404143"/>
        <path id="パス_589" data-name="パス 589" d="M1.574,40.279l.284,2.381.136,1.135a5.6,5.6,0,0,1,.074,1.11l.086-.617a2.4,2.4,0,0,1-.074.284l.234-.555a8.631,8.631,0,0,0-.555,1.122,2.829,2.829,0,0,0,.21,2.171,3.1,3.1,0,0,0,2.677,1.542A3.325,3.325,0,0,0,7.31,47.47c.382-.493.641-1.073,1.024-1.566l-.358.469a5.006,5.006,0,0,1,.814-.8l-.469.358a7.15,7.15,0,0,1,.641-.419,2.338,2.338,0,0,0,.826-3.17,2.363,2.363,0,0,0-3.17-.826A6.609,6.609,0,0,0,4.781,42.98a8.341,8.341,0,0,0-.826,1.135c-.148.259-.3.53-.469.777l.358-.469a2.449,2.449,0,0,1-.247.259l.469-.358a1.209,1.209,0,0,1-.271.16l.555-.234a.925.925,0,0,1-.2.049l.617-.086H4.5l.617.086a1.534,1.534,0,0,1-.2-.049l.555.234s-.111-.062-.173-.1l.469.358a.732.732,0,0,1-.123-.136L6,45.077S5.965,45,5.94,44.966l.234.555A.5.5,0,0,1,6.15,45.4l.086.617v-.148l-.086.617a.975.975,0,0,1,.049-.16l-.234.555c.086-.185.222-.345.308-.53a3.977,3.977,0,0,0,.407-1.542,9.337,9.337,0,0,0-.123-1.431l-.358-3.1a2.546,2.546,0,0,0-.678-1.64,2.323,2.323,0,0,0-3.281,0,2.225,2.225,0,0,0-.678,1.64h0Z" transform="translate(0.379 8.873)" fill="#404143"/>
      </g>
      <g id="_-2" transform="translate(2.013 6.628)">
        <path id="パス_590" data-name="パス 590" d="M76.371,66.077q-.2,0-.412-.017l.062-.747a2.518,2.518,0,0,0,2.307-.82c.757-.908,1.052-2.591.855-4.868a21.351,21.351,0,0,0-.559-3.288l-.043-.159.088-.139a6.4,6.4,0,0,0,.725-6.275A6.821,6.821,0,0,0,77.656,47.4l.467-.587a7.514,7.514,0,0,1,1.958,2.642,7.092,7.092,0,0,1-.69,6.84c.253,1.011,1.463,6.334-.486,8.672A3.131,3.131,0,0,1,76.371,66.077Z" transform="translate(15.741 4.382)" fill="#646364"/>
        <path id="パス_591" data-name="パス 591" d="M7.447,72.657a2.751,2.751,0,0,1-1.983-.84c-2.841-2.8-2.331-11.973-2.242-13.284C1.6,56.365.969,54.382,1.35,52.636a4.8,4.8,0,0,1,2.24-3.046l.353.662-.176-.331.177.33a4.1,4.1,0,0,0-1.863,2.556c-.333,1.55.28,3.362,1.823,5.385l.087.114-.011.142a46.348,46.348,0,0,0-.029,5.45c.213,3.728.919,6.282,2.039,7.385a2.009,2.009,0,0,0,1.676.614l.069.747Q7.59,72.657,7.447,72.657Z" transform="translate(-1.619 5.038)" fill="#646364"/>
        <path id="線_205" data-name="線 205" d="M11.964.375H0v-.75H11.964Z" transform="translate(6.551 52.836)" fill="#646364"/>
        <path id="パス_592" data-name="パス 592" d="M36.856,48.723l-.232-.713a20.835,20.835,0,0,1,3.842-.756,20.037,20.037,0,0,1,8.357.757l-.238.711A18.87,18.87,0,0,0,40.567,48,20.53,20.53,0,0,0,36.856,48.723Z" transform="translate(6.58 4.47)" fill="#646364"/>
        <path id="線_206" data-name="線 206" d="M10.232.535-.006.375l.012-.75,10.237.16Z" transform="translate(80.359 51.652)" fill="#646364"/>
        <path id="パス_593" data-name="パス 593" d="M47.759,107.789h-.3a29.435,29.435,0,0,1-10.611-2.048,32.931,32.931,0,0,1-12.426-9.077A59.273,59.273,0,0,1,18.9,88.873l-.264-.409a91.761,91.761,0,0,1-6.087-10.551C10.232,73.127,8.7,69.966,8.024,65.522a30.582,30.582,0,0,1,.421-11.274l-1.363-2.88.678-.321,1.474,3.114-.029.126a29.854,29.854,0,0,0-.439,11.122c.663,4.332,2.172,7.453,4.456,12.178a91.141,91.141,0,0,0,6.042,10.471l.264.408a58.859,58.859,0,0,0,5.452,7.7,32.228,32.228,0,0,0,12.144,8.882,28.688,28.688,0,0,0,10.342,1.995,31.4,31.4,0,0,0,7.118-.752,48.9,48.9,0,0,0,11.653-4.722,38.9,38.9,0,0,0,7.1-5.192c3.676-3.39,8.4-11.451,11.722-17.616,2.389-4.439,4.4-8.56,5.576-11.068l.036-.439c.019-.23,1.886-23,1.886-24.847h.75c0,1.579-1.277,17.406-1.732,23,.2-.378.3-.509.537-.5l.248.014.087.236c.058.16.071.2-.481,1.436-.345.773-.832,1.817-1.37,2.94-.824,1.718-2.528,5.2-4.686,9.23-3.4,6.35-8.257,14.655-12.063,18.165a39.643,39.643,0,0,1-7.238,5.292,49.655,49.655,0,0,1-11.839,4.8l-.016,0A32.173,32.173,0,0,1,47.759,107.789Z" transform="translate(-0.264 3.283)" fill="#646364"/>
        <path id="パス_594" data-name="パス 594" d="M19.331,41.318l-.282-.7a31.2,31.2,0,0,1,6.443-1.674,24.316,24.316,0,0,1,6.026-.209,14.771,14.771,0,0,1,6.131,1.909l-.383.645a14.03,14.03,0,0,0-5.822-1.807,23.568,23.568,0,0,0-5.839.2A30.99,30.99,0,0,0,19.331,41.318Z" transform="translate(2.483 2.492)" fill="#646364"/>
        <path id="パス_595" data-name="パス 595" d="M50.091,40.678l-.282-.7a31.2,31.2,0,0,1,6.443-1.674,24.316,24.316,0,0,1,6.026-.209,14.771,14.771,0,0,1,6.131,1.909l-.383.645a14.025,14.025,0,0,0-5.812-1.806,23.544,23.544,0,0,0-5.832.2A31.066,31.066,0,0,0,50.091,40.678Z" transform="translate(9.663 2.343)" fill="#646364"/>
        <path id="パス_596" data-name="パス 596" d="M43.185,67.77A7.026,7.026,0,0,1,38,65.577a5.123,5.123,0,0,1-4.076-2.755,9.081,9.081,0,0,1-1.022-2.6l.981-.193a8.2,8.2,0,0,0,.915,2.3,4.078,4.078,0,0,0,3.456,2.253l.237.007.145.187a5.348,5.348,0,0,0,1.39,1.139,6.3,6.3,0,0,0,3.987.8l2.38-1.072.1,0c.045,0,4.562-.1,6.248-1.962a2.212,2.212,0,0,0,.589-1.752l1-.083a3.2,3.2,0,0,1-.844,2.507c-1.841,2.033-6.119,2.262-6.867,2.287L44.282,67.7l-.075.009A8.337,8.337,0,0,1,43.185,67.77Z" transform="translate(5.798 7.421)" fill="#646364"/>
        <path id="パス_597" data-name="パス 597" d="M40.718,70.829h0c6.9,0,19.177,1.2,19.3,1.213l.436.043.015.437c0,.142,0,1.431-1.657,3.036-2.119,2.053-5.907,3.667-11.259,4.8a21.347,21.347,0,0,1-4.394.476A17.331,17.331,0,0,1,32.1,76.947a16.374,16.374,0,0,1-3.58-3.905l-.2-.335.374-.373.115-.037A41.648,41.648,0,0,1,39.1,70.855C39.579,70.838,40.125,70.829,40.718,70.829Zm18.661,2.156c-2.452-.231-12.632-1.156-18.66-1.156h0c-.581,0-1.115.009-1.587.026a45.457,45.457,0,0,0-9.381,1.219,16.824,16.824,0,0,0,3.009,3.12,16.329,16.329,0,0,0,10.4,3.637,20.346,20.346,0,0,0,4.188-.454c3.478-.734,8.149-2.1,10.653-4.426A4.784,4.784,0,0,0,59.379,72.985Z" transform="translate(4.761 10.035)" fill="#646364"/>
        <path id="パス_598" data-name="パス 598" d="M39.273,24.635h-1c0-4.633-1.631-15.641-1.647-15.751l.989-.147C37.682,9.191,39.273,19.928,39.273,24.635Z" transform="translate(6.668 -4.558)" fill="#303031"/>
        <path id="パス_599" data-name="パス 599" d="M35.255,25.612c-1.143-3.921-6.745-13.967-6.8-14.068l.873-.488c.233.417,5.715,10.247,6.889,14.276Z" transform="translate(4.747 -3.977)" fill="#303031"/>
        <path id="線_207" data-name="線 207" d="M2.35,12.153-.487.115.487-.115,3.324,11.924Z" transform="translate(28.679 9.691)" fill="#303031"/>
        <path id="パス_600" data-name="パス 600" d="M22.36,26.643,15.922,24.8l.275-.961,3.479,1-3.307-4.227.788-.616Z" transform="translate(1.752 -1.876)" fill="#303031"/>
        <path id="線_208" data-name="線 208" d="M6.053,5.808-.324.381.324-.381,6.7,5.046Z" transform="translate(0.803 13.231)" fill="#303031"/>
        <path id="線_209" data-name="線 209" d="M5.374,4.655-.3.4.3-.4,5.974,3.855Z" transform="translate(9.067 29.525)" fill="#303031"/>
        <path id="線_210" data-name="線 210" d="M6.745,6.748-.335.372.335-.372l7.08,6.377Z" transform="translate(6.477 33.311)" fill="#303031"/>
        <path id="線_211" data-name="線 211" d="M.5,8.772l-1-.055L-.018-.027l1,.055Z" transform="translate(54.889 8.976)" fill="#303031"/>
        <path id="線_212" data-name="線 212" d="M.49,12.621l-.979-.2L2.1-.1,3.08.1Z" transform="translate(63.4 5.67)" fill="#303031"/>
        <path id="線_213" data-name="線 213" d="M.4,4.917-.4,4.309,3.143-.3,3.937.3Z" transform="translate(71.664 17.832)" fill="#303031"/>
        <path id="パス_601" data-name="パス 601" d="M63.809,31.7l-.9-1.787c.87-.437,1.754-2.033,2.427-4.38a28.963,28.963,0,0,0,.8-3.831l1.984.25a30.483,30.483,0,0,1-.859,4.108C66.4,29.086,65.24,30.984,63.809,31.7Z" transform="translate(12.793 -1.519)" fill="#404143"/>
        <path id="パス_602" data-name="パス 602" d="M67.989,35.791l-.839-1.816c2.707-1.25,4.466-4.7,4.484-4.733l1.788.9C73.339,30.3,71.34,34.243,67.989,35.791Z" transform="translate(13.776 0.316)" fill="#404143"/>
        <path id="パス_603" data-name="パス 603" d="M2.083,19.881c-.681-2.874-.295-5.134,1.148-6.718,2.5-2.749,7.383-2.545,8.913-2.4a7.137,7.137,0,0,1,3.409-4.776,11.171,11.171,0,0,1,7.012-.973,19.587,19.587,0,0,1,3.733.854l-.338.941h0A18.96,18.96,0,0,0,22.412,6a10.616,10.616,0,0,0-6.37.856A6.324,6.324,0,0,0,13.026,11.4l-.091.464-.469-.066c-.059-.008-5.925-.789-8.5,2.039-1.206,1.325-1.513,3.28-.913,5.812Z" transform="translate(-1.47 -5.363)" fill="#404143"/>
        <path id="パス_604" data-name="パス 604" d="M31.345,95.223a28.8,28.8,0,0,0,8.671-7.031l-1.209-.937-2.479,4.292a.782.782,0,0,0,.456,1.135c1.283.37,3.577.925,4.749.111.333-.234.555-.715.851-1a6.173,6.173,0,0,1,4.231-1.7l-.74-.974a3.171,3.171,0,0,0,3.614,3.811c1.283-.222,1.912-1.2,2.8-2.035a7.339,7.339,0,0,1,4.564-1.961l-.666-1.159c-.567.974-1.529,2.6-.518,3.6s3.01-.382,3.787.555l-.2-.752c-.1.6-1.677,1.3-2.146,1.591l-2.047,1.32c-.641.407-1.27.876-1.949,1.233a4.549,4.549,0,0,1-2.775.284c-2.825-.234-5.18,1.147-7.45,2.664l1.061.271c-1.159-2.1-3.663-1.8-5.587-1.122a5.76,5.76,0,0,1-2.467.629c-.789-.16-.839-.925-1.11-1.529a6.521,6.521,0,0,0-2.356-2.652l-.185,1.406c1.554-.407,3.108-.9,4.675-1.233.728-.148,1.517-.358,2,.3a9.578,9.578,0,0,1,.6,2.714.777.777,0,0,0,1.283.345c2.047-2.109,4.5-2.788,7.364-2.936,2.171-.111,4.354-.2,6.155-1.542a.788.788,0,0,0,.16-1.209A3.107,3.107,0,0,0,51.3,90.93a.792.792,0,0,0-.567.74,3.371,3.371,0,0,0,4.046,2.985c.974-.173.567-1.665-.407-1.492a1.811,1.811,0,0,1-2.1-1.5l-.567.74a1.551,1.551,0,0,1,1.677.382l.16-1.209c-2.2,1.64-5.045,1.172-7.6,1.517A10.63,10.63,0,0,0,39.72,96.3L41,96.641c-.407-1.85-.284-4.058-2.578-4.28-2.121-.21-4.576.888-6.586,1.431a.778.778,0,0,0-.185,1.406c1.258.851,1.566,1.887,2.2,3.182A2,2,0,0,0,35.5,99.564c1.973.271,5.822-2.615,7.129-.234a.78.78,0,0,0,1.061.271,18.066,18.066,0,0,1,3.589-2.035,9.917,9.917,0,0,1,4.169-.308c2.368.062,4.354-1.8,6.241-3.01.974-.629,3.873-1.8,2.886-3.4a1.919,1.919,0,0,0-1.936-.826c-.382.037-.9.333-1.258.284-1.073-.123-.111-1.258.173-1.739a.777.777,0,0,0-.666-1.159,9.034,9.034,0,0,0-4.662,1.591,12.589,12.589,0,0,0-1.739,1.6,1.866,1.866,0,0,1-1.579.8,1.559,1.559,0,0,1-1.517-1.875.785.785,0,0,0-.74-.974,7.911,7.911,0,0,0-6.29,3.318l.666-.382a9.2,9.2,0,0,1-3.8-.284l.456,1.135,2.479-4.292c.419-.728-.629-1.628-1.209-.937a27.823,27.823,0,0,1-8.363,6.784c-.876.469-.1,1.8.777,1.332h0Z" transform="translate(5.055 13.66)" fill="#646364"/>
      </g>
    </g>
  </g>
</svg>
