
<svg xmlns="http://www.w3.org/2000/svg" width="103.847" height="120.506" viewBox="0 0 103.847 120.506">
  <g id="yukkosan" transform="translate(-0.003 0.006)">
    <g id="_イヤー_1-2" transform="translate(4.876 22.446)">
      <path id="パス_605" data-name="パス 605" d="M7.186,47.215A2.835,2.835,0,0,0,5.865,49.1a11.015,11.015,0,0,1-.383,1.439l.172-.4a4.553,4.553,0,0,1-.37.713,1.7,1.7,0,0,0-.172,1.268,1.674,1.674,0,0,0,.753.99,1.7,1.7,0,0,0,1.268.172,1.769,1.769,0,0,0,.99-.753,6.371,6.371,0,0,0,.739-1.717,9.368,9.368,0,0,1,.291-1.2l-.172.4a2.794,2.794,0,0,1,.145-.277l-.264.33a1.709,1.709,0,0,1,.158-.158l-.33.264a.84.84,0,0,1,.132-.079,1.674,1.674,0,0,0,.753-.99,1.651,1.651,0,0,0-2.433-1.848h0Z" transform="translate(-3.303 -7.376)" fill="#54777d"/>
      <path id="パス_606" data-name="パス 606" d="M7.518,48.312a3.159,3.159,0,0,1-.357.9,8.038,8.038,0,0,0-.555,1.453,27.253,27.253,0,0,0-.475,2.72c-.277,1.941-.475,3.9-.581,5.863A1.668,1.668,0,0,0,7.2,60.9a1.686,1.686,0,0,0,1.651-1.651c.092-1.743.251-3.578.489-5.189a22.892,22.892,0,0,1,.449-2.522,3.672,3.672,0,0,1,.383-.977,4.7,4.7,0,0,0,.528-1.373A1.7,1.7,0,0,0,9.551,47.15,1.667,1.667,0,0,0,7.518,48.3h0Z" transform="translate(-3.147 -7.351)" fill="#54777d"/>
      <path id="パス_607" data-name="パス 607" d="M9.2,59.8a12.872,12.872,0,0,0-.066,5.123,1.649,1.649,0,0,0,3.011.409,1.838,1.838,0,0,0,.172-1.268l-.079-.475.053.436a10.6,10.6,0,0,1,0-2.892l-.053.436q.059-.436.158-.872a1.7,1.7,0,0,0-.172-1.268,1.648,1.648,0,0,0-3.011.409h0Z" transform="translate(-2.07 -3.662)" fill="#54777d"/>
      <path id="パス_608" data-name="パス 608" d="M10.372,68.235a6.618,6.618,0,0,0,.423,1.109,4.488,4.488,0,0,0,.409.687,6.85,6.85,0,0,0,.739.9,5.636,5.636,0,0,0,.938.739,1.273,1.273,0,0,0,.607.2,1.248,1.248,0,0,0,.66-.026,1.646,1.646,0,0,0,1.162-2.02,1.815,1.815,0,0,0-.753-.99l-.277-.2.33.264a5.07,5.07,0,0,1-.753-.753l.264.33a4.877,4.877,0,0,1-.541-.911l.172.4a4.3,4.3,0,0,1-.2-.581,1.769,1.769,0,0,0-.753-.99,1.273,1.273,0,0,0-.607-.2,1.248,1.248,0,0,0-.66.026,1.769,1.769,0,0,0-.99.753,1.75,1.75,0,0,0-.172,1.268h0Z" transform="translate(-1.617 -1.247)" fill="#54777d"/>
      <path id="パス_609" data-name="パス 609" d="M12.917,69.981a1.652,1.652,0,0,0,0-3.3,1.652,1.652,0,0,0,0,3.3Z" transform="translate(-1.296 -1.079)" fill="#54777d"/>
      <path id="パス_610" data-name="パス 610" d="M4.219,80.443a7.754,7.754,0,0,0,3.552,1.822,1.7,1.7,0,0,0,1.268-.172,1.648,1.648,0,0,0-.409-3.011,5.8,5.8,0,0,1-1.175-.37l.4.172A6.56,6.56,0,0,1,6.5,78.092l.33.264c-.106-.079-.2-.158-.291-.238a1.746,1.746,0,0,0-1.162-.489,1.662,1.662,0,0,0-1.162.489,1.72,1.72,0,0,0-.489,1.162,1.564,1.564,0,0,0,.489,1.162h0Z" transform="translate(-3.73 2.43)" fill="#54777d"/>
      <path id="パス_611" data-name="パス 611" d="M68.781,26.382c.185,3.42,1.4,6.655,1.664,10.062.132,1.73.132,3.46.423,5.176a20.848,20.848,0,0,0,1.479,4.608,44.6,44.6,0,0,1,2.641,9.666c.436,2.628,1.136,6.074-.766,8.293-1.373,1.611.951,3.948,2.337,2.337,1.941-2.271,2.364-5.071,2.113-7.989A45.464,45.464,0,0,0,76.571,48c-.555-1.611-1.294-3.156-1.862-4.767a19.709,19.709,0,0,1-.885-5.546c-.2-3.856-1.545-7.5-1.743-11.33-.106-2.113-3.407-2.126-3.3,0h0Z" transform="translate(17.116 -14.511)" fill="#54777d"/>
      <path id="パス_612" data-name="パス 612" d="M72.429,60.283,71.4,52.39l.016-.128c1.3-10.189-1.392-15.728-2-16.82-1.231-.667-6.625-3.594-8.891-4.946-2.6-1.547-11.171-11.7-12.14-12.852l1.531-1.287c3.72,4.423,9.887,11.381,11.631,12.422,2.475,1.477,9,5,9.061,5.036l.224.121.139.213a16.949,16.949,0,0,1,1.836,4.687,36.366,36.366,0,0,1,.606,13.551l1,7.637Z" transform="translate(10.826 -17)" fill="#54777d"/>
    </g>
    <g id="_">
      <path id="パス_613" data-name="パス 613" d="M50.54,2.835c1.611.185.026-.119-.3-.224-.423-.145-.832-.317-1.241-.489A19.251,19.251,0,0,0,46.239,1.1,21.907,21.907,0,0,0,39.1.828c-4.82.4-9.534,1.545-13.02,5.137-1.136,1.162-2.113,2.5-3.209,3.7-.845.938,1.03-.436-.119.079a12.894,12.894,0,0,0-1.2.621,11.218,11.218,0,0,0-3.671,3.46,10.865,10.865,0,0,1-1.254,1.941,2.66,2.66,0,0,1,1.162-1.188l-.343.211c-.357.185-.713.4-1.056.607a9.868,9.868,0,0,0-4.939,6.061c-.792,3.354,1.043,7.315,4.608,8.121,3.38.766,7.276-1.017,8.121-4.608a4.15,4.15,0,0,1-1.426,1.954c-.8.713.066,0,.291-.132.528-.3,1.056-.594,1.558-.938A11.453,11.453,0,0,0,27.881,22.6c.185-.264,1.215-1.453,1.122-1.756a2.145,2.145,0,0,1-.753.819q-.535.376-.04.079a6.486,6.486,0,0,0,1.2-.621,15.717,15.717,0,0,0,2.8-2.139c1.07-1.017,1.9-2.271,2.892-3.354.2-.224.462-.436.647-.673.383-.5-1.043.528,0,0,.172-.092,1.413-.792.528-.343s.489-.132.607-.172c.317-.092.647-.172.977-.238.053,0,1.651-.277.621-.132s.436-.026.647-.053c.423-.04.845-.066,1.268-.092q1.228-.079,2.456-.079c1.453,0-.462-.277.145.04a9.513,9.513,0,0,0,1.268.423,23.908,23.908,0,0,0,6.3,1.7c3.446.4,6.748-3.314,6.6-6.6-.172-3.909-2.918-6.18-6.6-6.6h0Z" transform="translate(3.564 0.213)" fill="#54777d"/>
      <path id="パス_614" data-name="パス 614" d="M14.062,17.454a35.331,35.331,0,0,0-2.879,9.058c-.5,2.773-.819,5.6-1.505,8.332-.317,1.294-.766,2.535-.99,3.843a58.447,58.447,0,0,0-.5,5.876c-.092,1.519-.238,3.024-.4,4.542-.026.238-.357,2.76-.172,1.479-.119.858-.264,1.717-.409,2.575-.568,3.394.885,7.276,4.608,8.121,3.182.726,7.513-.964,8.121-4.608s1.07-7.183,1.36-10.8c.106-1.439.224-2.892.251-4.344s-.37.9.079-.436c.238-.713.436-1.479.634-2.2a77.985,77.985,0,0,0,1.453-7.764c.211-1.294.449-2.588.753-3.856.172-.726.37-1.439.607-2.152.119-.357.238-.7.37-1.043q-.475,1.07,0,.04c1.479-3.116.977-7.263-2.364-9.032-2.931-1.545-7.461-.964-9.032,2.364h0Z" transform="translate(2.224 4.569)" fill="#54777d"/>
      <path id="パス_615" data-name="パス 615" d="M21.922,49.034c.211-1.043-.343.805-.766.964.2-.079.475-.5.634-.647.621-.594,1.32-1.1,1.941-1.69a25.777,25.777,0,0,0,4-5.454c.185-.3.37-.621.568-.924.238-.37,1.188-1.254.264-.409.687-.621,1.281-1.32,1.994-1.915,1.624-1.4,3.328-2.72,4.991-4.067,6.906-5.6,13.812-11.2,20.586-16.968,1.994-1.69,2.311-4.965,1.36-7.21-1.1-2.588-3.328-3.763-6.035-4.054C45.9,6.053,40.184,7.743,35.034,9.724a12.447,12.447,0,0,0-4.648,2.72A16.773,16.773,0,0,0,27.8,16.59c-.251.449-.528.872-.805,1.307-.845,1.32.885-.845-.238.264-.357.357-.739.713-1.083,1.083-.555.475-.515.449.145-.066-.277.2-.555.4-.845.581-2.879,1.9-4.371,5.929-2.364,9.032,1.849,2.879,5.942,4.4,9.032,2.364a23.88,23.88,0,0,0,6.14-5.77,17.047,17.047,0,0,0,1.651-2.575,14.234,14.234,0,0,0,.687-1.466c.224.264-1.571,1.109-1.6,1.109a36.735,36.735,0,0,1,6.893-2.192c.594-.145,1.188-.251,1.783-.383,1.228-.277-.423-.04.33-.053a32.171,32.171,0,0,1,3.909.04L46.76,8.588c-7.091,6.035-14.34,11.9-21.576,17.773-1.624,1.307-3.314,2.575-4.833,4a25.49,25.49,0,0,0-4.331,5.665c-.238.383-.462.779-.7,1.162-.343.528-.634.9-.053.2a16.178,16.178,0,0,1-2.126,2.02,11.284,11.284,0,0,0-3.975,6.127c-.673,3.38.964,7.289,4.608,8.121,3.288.753,7.4-.99,8.121-4.608h0Z" transform="translate(2.842 2.092)" fill="#54777d"/>
      <path id="パス_616" data-name="パス 616" d="M43.85,17.519a10.457,10.457,0,0,0,9.35-5.546L49.251,15.01l.449-.092H46.188c-.383-.079-1.017-.489-.211-.132.687.291,1.347.621,2.047.885a11.094,11.094,0,0,0,2.258.568q1.664.257,3.328.4l1.056.079c.172.013,1.307.185.423.026s.251.066.409.106c.423.092.858.2,1.268.317.33.092.66.211,1,.317.805.251.291-.079-.119-.079.515,0,1.426.713,1.862.977.317.185.621.409.938.607,1.043.647-.357-.357.224.132,1.136.964,2.232,1.954,3.3,3.011l.792.792c.264.264.568.9.3.224-.172-.436-.607-1.347-.317-.343.106.357.238.713.37,1.07a24.021,24.021,0,0,0,2.5,5.057,19.225,19.225,0,0,0,1.268,1.915c.475.541-.185-.911-.053-.238q.158.555,0-.2a2.87,2.87,0,0,1-.013-1.254,6.667,6.667,0,0,0,4.608,8.121,6.827,6.827,0,0,0,8.121-4.608,10.927,10.927,0,0,0-1.532-8.926c-.515-.819-1.109-1.585-1.6-2.43-.29-.489-.528-.99-.779-1.492.647,1.268-.066-.291-.145-.528a13.042,13.042,0,0,0-2.548-4.82c-.634-.726-1.334-1.386-2.02-2.06A42.918,42.918,0,0,0,67.13,7.6,26.261,26.261,0,0,0,53.358,3.417c-1.281-.053.7.211-.066.013-.2-.053-1.8-.515-.938-.185s-.423-.224-.594-.3a9.553,9.553,0,0,0-3.79-.99,8.265,8.265,0,0,0-3.79.99,4.882,4.882,0,0,0-1.849,1.7,3.088,3.088,0,0,0-.7,1.043l.541-.673c-.515.489-.4.4.357-.264.37-.224,2.469-.436,1.334-.436-3.46,0-6.761,3.05-6.6,6.6a6.745,6.745,0,0,0,6.6,6.6h0Z" transform="translate(11.891 0.622)" fill="#54777d"/>
      <path id="パス_617" data-name="パス 617" d="M48.5,18.764a5.3,5.3,0,0,1-2.879.423,12.35,12.35,0,0,1,1.36.264l2.4.475c.9.185,1.809.357,2.707.541l.885.2c.832.172.04.026-.33-.172l-.66-.489c-.541-.739-.673-.911-.4-.489.145.238.317.475.475.713a11.434,11.434,0,0,0,2.39,2.641,8.328,8.328,0,0,1,1.505,1.083c-.026-.053-1.017-.938-.977-.951a26.267,26.267,0,0,0,1.532,2.39,39.667,39.667,0,0,0,7.342,6.761,33.079,33.079,0,0,0,4.25,2.918c.607.343,1.241.634,1.875.938.383.185.766.357,1.136.568s1.136.911.092-.013c2.588,2.284,6.827,2.733,9.336,0,2.3-2.5,2.76-6.893,0-9.336a24.357,24.357,0,0,0-5.282-3.288,22.573,22.573,0,0,1-2.3-1.386c-.3-.2-.581-.409-.885-.621-1.453-1.03,1,.858-.37-.291-1.281-1.07-2.575-2.152-3.8-3.288-.3-.277-.581-.581-.872-.872-.845-.792.238.607,0-.026a10.326,10.326,0,0,0-2.06-3.063c-.343-.357-2.456-2.311-2.733-2.086.3-.238,1.32,1.439,1.043.924a10.112,10.112,0,0,0-.594-.872A10.806,10.806,0,0,0,56.1,7.87C51.485,6.8,46.322,5.2,41.872,7.408c-3.1,1.545-4.212,6.18-2.364,9.032A6.764,6.764,0,0,0,48.54,18.8h0Z" transform="translate(12.325 2.018)" fill="#54777d"/>
      <path id="パス_618" data-name="パス 618" d="M67.474,28.135a38.931,38.931,0,0,1,2.958,6.114,54.359,54.359,0,0,1,1.69,6.3c.977,4.344,2.034,8.874.687,13.257-.621,2.034,2.562,2.9,3.182.872,1.466-4.793.489-9.758-.581-14.525a55.675,55.675,0,0,0-1.967-7.263,44.583,44.583,0,0,0-3.116-6.431c-1.03-1.862-3.882-.2-2.852,1.664h0Z" transform="translate(21.504 8.216)" fill="#54777d"/>
      <path id="パス_619" data-name="パス 619" d="M78.578,53.9A15.9,15.9,0,0,0,76.9,45.921a30.245,30.245,0,0,0-1.651-2.747,8.918,8.918,0,0,1-1.268-2.535,18.777,18.777,0,0,1-.158-3.235,24.278,24.278,0,0,0-.621-4.252c-.581-2.35-1.862-4.767-4.133-5.863a3.356,3.356,0,0,0-4.265.845,3.3,3.3,0,0,0,.264,4.331c.172.158.343.33.5.5-.158-.2-.119-.132.106.2,0,0,.409.885.264.5a9.357,9.357,0,0,1,.343,1.228c.04.172.066.357.106.541q-.059-.416,0,.2c.053,2.113-.158,4.212-.079,6.325.172,4.278,1.162,8.583,1.835,12.809.277,1.756,2.482,2.747,4.067,2.311a3.4,3.4,0,0,0,2.311-4.067c-.687-4.278-1.73-8.609-1.6-12.914s.277-9.032-3.169-12.307l-4,5.189a2.818,2.818,0,0,1,.555.3c-.264-.185-.251-.145.026.119-.185-.687.4.885.119.238a10.533,10.533,0,0,1,.673,2.628c.357,2.284-.066,4.6.726,6.827a32.523,32.523,0,0,0,2.918,5.321A9.3,9.3,0,0,1,72,53.9a3.3,3.3,0,0,0,6.6,0h0Z" transform="translate(20.501 8.612)" fill="#54777d"/>
      <path id="パス_620" data-name="パス 620" d="M72.05,51.465s.106.106.145.158l-.515-.673a1.485,1.485,0,0,1,.158.277l-.33-.792a1.393,1.393,0,0,1,.079.317l-.119-.872a1.272,1.272,0,0,1,0,.317l.119-.872a2.111,2.111,0,0,1-.066.277l2.311-2.311a.62.62,0,0,0-.066.026l.872-.119h-.106l.872.119a.537.537,0,0,1-.092-.026l.792.33s-.066-.04-.092-.053l.673.515a.756.756,0,0,1-.106-.106l.515.673s-.066-.106-.106-.158l.33.792c-.066-.172-.092-.343-.145-.515a5.156,5.156,0,0,0-.409-.964,3.908,3.908,0,0,0-.317-.423,3.2,3.2,0,0,0-.33-.409L75.76,46.7l-.357-.277a3.742,3.742,0,0,0-.475-.211,3.2,3.2,0,0,0-1.426-.33h-.238a7.836,7.836,0,0,0-.951.132.385.385,0,0,0-.119.026c-.079.026-.158.053-.224.079-.33.132-.673.264-.99.423A3.811,3.811,0,0,0,69,48.89a3.612,3.612,0,0,0,0,1.875,3.527,3.527,0,0,0,.185.475,2.574,2.574,0,0,0,.715,1.11,3.387,3.387,0,0,0,1.571.911,2.49,2.49,0,0,0,1.32.053,2.989,2.989,0,0,0,2.152-1.241,2.5,2.5,0,0,0,.594-1.122l.119-.872a3.344,3.344,0,0,0-.449-1.664l-.515-.673a3.3,3.3,0,0,0-1.453-.845h-.026l.792.33-.053-.026.673.515-.04-.04.515.673a.092.092,0,0,1-.026-.053l.33.792a.521.521,0,0,0-.026-.079l.119.872v-.092l-.119.872s0-.04.013-.053l-.33.792a.362.362,0,0,1,.053-.092l-.515.673.106-.106-.673.515a2.591,2.591,0,0,1,.423-.224l-.792.33a1.426,1.426,0,0,1,.462-.132l-.872.119a1.942,1.942,0,0,1,.277,0l-.872-.119.158.04-.792-.33s.079.04.119.066l-.673-.515a.992.992,0,0,0,.106.092l-.515-.673s.066.106.092.158l-.33-.792a3.946,3.946,0,0,1,.119.423,3.209,3.209,0,0,0,.5,1.149,3.911,3.911,0,0,0,1.294,1.294,3.866,3.866,0,0,0,.924.409h.053l.872.119h.106a3.062,3.062,0,0,0,.951-.145,3.692,3.692,0,0,0,1.967-1.519l.33-.792a.622.622,0,0,1,.026-.066.336.336,0,0,1,.026-.092,7.078,7.078,0,0,0,.145-1.043,4.507,4.507,0,0,0-1.373-3.368,2.529,2.529,0,0,0-1.056-.687A2.488,2.488,0,0,0,74.44,45.8a2.457,2.457,0,0,0-1.268.291,2.335,2.335,0,0,0-1.056.687l-.515.673a3.213,3.213,0,0,0-.449,1.664l.119.872a3.3,3.3,0,0,0,.845,1.453h0Z" transform="translate(22.024 14.675)" fill="#54777d"/>
      <path id="パス_621" data-name="パス 621" d="M70.127,53.142c1.347,5.123.581,10.63,1.083,15.872a35.357,35.357,0,0,1-.145,8.187,32.1,32.1,0,0,0,.2,8.926c.264,1.769,2.482,2.733,4.067,2.311,1.888-.515,2.575-2.284,2.311-4.067a28.089,28.089,0,0,1,.2-8.147,37.148,37.148,0,0,0-.132-8.477c-.462-5.454.2-11-1.2-16.347-1.07-4.107-7.447-2.364-6.365,1.756h0Z" transform="translate(22.39 15.719)" fill="#54777d"/>
      <path id="パス_622" data-name="パス 622" d="M72.6,45.876c.264,10.154.462,20.309.779,30.463a26.383,26.383,0,0,0,.964,7.038c.621,2.06.66,4.292,1.426,6.3.264.7,1.136,1.928,1.162,2.72,0-.211.04-.106-.383.357s-.858.9-1.281,1.347c-1.386,1.453-2.9,3.711-4.727,4.6l4.846,1.967c-.673-2.456-2.232-4.556-3.077-6.959a62.091,62.091,0,0,1-1.967-7.342c-.489-2.192.383-4.358,1-6.47a34.823,34.823,0,0,1,2.945-7.236l-6.147-1.67c.053,4.529-.119,9.045-.462,13.561A11.273,11.273,0,0,0,68.5,90.6a12.942,12.942,0,0,0,1.637,2.324c.132.158.7.845.713.858L77,92.119a8.041,8.041,0,0,1-1.268-2.337c-1.307-4.027-7.685-2.3-6.365,1.756A13.833,13.833,0,0,0,71.3,95.446a3.45,3.45,0,0,0,3.724,1.519,3.332,3.332,0,0,0,2.43-3.182,9.116,9.116,0,0,0-2.35-5.176c-1.056-1.307-.951-2.4-.819-4.067.343-4.516.515-9.032.462-13.561-.04-3.209-4.529-4.569-6.153-1.664a42.252,42.252,0,0,0-3.446,8.253c-.872,2.852-1.954,5.876-1.519,8.742a52.257,52.257,0,0,0,2.126,8.583,37.951,37.951,0,0,0,1.624,4.041,23.185,23.185,0,0,1,1.651,3.473,3.343,3.343,0,0,0,4.846,1.967c2.245-1.083,3.935-3.407,5.638-5.176,1.8-1.875,4-3.75,4.027-6.563.013-2.416-1.492-4.292-1.888-6.589a32.914,32.914,0,0,0-.753-3.909,16.938,16.938,0,0,1-.766-3.407c-.489-5.282-.33-10.7-.462-15.991l-.436-16.876c-.106-4.239-6.708-4.252-6.6,0h0Z" transform="translate(20.309 13.675)" fill="#54777d"/>
      <path id="パス_623" data-name="パス 623" d="M16.349,74.508c1.149,1.981,1.426,4.384,3.116,6.021a10.374,10.374,0,0,0,2.786,1.888c.343.145.2.5.132-.04a1.965,1.965,0,0,1-.066.832c-.475,2.245-1.835,4.49-2.76,6.576-.475,1.07-.977,2.126-1.545,3.143a7.563,7.563,0,0,1-1.651,2.4L18.911,95a11.264,11.264,0,0,1-3.09-2.179c-1.307-1.083-2.588-2.192-3.935-3.222-1.136-.872-2.364-1.611-3.473-2.509a9.879,9.879,0,0,1-1.1-1,2.927,2.927,0,0,1-.475-.568c-.119-.158-.37-.9-.317-.343l-.449,1.664c.277-.475.673-.594,1.043-.951.647-.277.634-.357-.066-.238a1.1,1.1,0,0,1,.541.264c.621.726,1.36,1.109,1.743,2.073,1.043,2.654,1.307,5.493,4.133,7,6.576,3.512,11.409-5.1,11.409-10.524,0-3.037-1.241-6.1-4.133-7.408a5.888,5.888,0,0,0-7.764,2.76c-1.439,2.588-2.218,5.85-.607,8.543A6.139,6.139,0,0,0,20.6,90.353a3.393,3.393,0,0,0,1.188-4.516,36.242,36.242,0,0,0-6.351-10.1A4.455,4.455,0,0,0,9.707,75c-.872.515-1.69,1.2-2.509,1.8a10.119,10.119,0,0,1-2.113,1.4H6.841l-.357-.119,1.967,4.846c2.2-2.892,2.826-6.919,3.354-10.432a61.384,61.384,0,0,0,.647-11.858c-.2-4.225-6.774-4.265-6.6,0,.119,3.011,1.36,5.784,2.469,8.543s2.416,5.7,3.763,8.491A3.38,3.38,0,0,0,15.807,79.2c2.588-.436,3.684-2.945,3.671-5.308-.026-4.252-6.629-4.252-6.6,0,0,.594,0,.634.026.119l1.188-1.188h-.04l3.724,1.532c-1.1-2.271-2.139-4.569-3.09-6.919-.845-2.086-2.152-4.516-2.232-6.787H5.825a53.825,53.825,0,0,1-.409,10.1c-.423,2.958-.832,6.417-2.681,8.847-1.373,1.8.172,4.252,1.967,4.846a4.964,4.964,0,0,0,4.529-1.03c.687-.489,1.36-.977,2.047-1.466L12.3,81.2c.647-.33.7-.449.172-.343L10.8,80.41a9.805,9.805,0,0,1,1.056,1.413c.568.792,1.122,1.6,1.637,2.43a42.631,42.631,0,0,1,2.588,4.925l1.188-4.516c.581-.3.5.489.792.462a5.118,5.118,0,0,1,.277-1.281c.2-.489,1.162-1.637-.158-.739-.224.145-.158-.383-.2-.106-.013.119.238.555.264.726a6.471,6.471,0,0,1-.713,3.935c-.238.462-.951.964-1.1,1.373.066-.185-.436.489-.145.119a.5.5,0,0,1,.423.119.784.784,0,0,1-.185-.3,9.111,9.111,0,0,0-.621-1.994,14.243,14.243,0,0,0-.977-2.522A10.743,10.743,0,0,0,11.344,80.5C7.753,78.086,3.765,79.327,1.1,82.51s.211,7.289,2.958,9.481c2.416,1.928,4.925,3.711,7.329,5.665a27.978,27.978,0,0,0,4.225,3.024A4.254,4.254,0,0,0,21.4,99.558c2.4-2.76,3.75-6.14,5.216-9.455,1.585-3.565,3.843-7.8,1.162-11.448a7.81,7.81,0,0,0-2.166-1.941,8.967,8.967,0,0,1-1.453-.858,6.8,6.8,0,0,1-.528-1.334,19.284,19.284,0,0,0-1.571-3.341c-2.139-3.671-7.857-.343-5.7,3.328h0Z" transform="translate(-0.037 18.411)" fill="#54777d"/>
      <path id="パス_624" data-name="パス 624" d="M12.954,60.513c-.607-1.809-1.32-3.578-2.086-5.335A3.243,3.243,0,0,0,7.58,53.607,3.3,3.3,0,0,0,4.834,55.97c-.594,2.3-.9,4.886.409,7.012.264.423.8,1.281,1.32,1.479.224.079.145.106.026-.092s.119.555.145.66c.3,1.215.581,2.43.885,3.644,1.136,4.529,2.892,9.217,6.589,12.28a3.4,3.4,0,0,0,4.674,0,3.324,3.324,0,0,0,0-4.674c-2.918-2.4-3.935-5.533-4.9-9.362-.555-2.179-.739-5.031-2.35-6.748a3.179,3.179,0,0,0-.541-.489c-.317-.317-.357-.317-.145-.026-.185-.33-.2-.33-.026,0-.079-.383-.092-.383-.013,0,0-.145.119-1.334,0-.687q.119-.614.277-1.228l-6.035.792c.489,1.1,1,2.5,1.426,3.75a3.385,3.385,0,0,0,4.067,2.311,3.351,3.351,0,0,0,2.311-4.067h0Z" transform="translate(1.338 17.168)" fill="#54777d"/>
      <path id="パス_625" data-name="パス 625" d="M6.327,42.407c.066,1.492.819,2.865,1.122,4.3a15.181,15.181,0,0,1,.277,4.371.823.823,0,0,0,.819.819.832.832,0,0,0,.819-.819,16.648,16.648,0,0,0-.277-4.5,16.616,16.616,0,0,0-.568-2.113,7.681,7.681,0,0,1-.568-2.073c-.04-1.056-1.69-1.07-1.651,0h0Z" transform="translate(1.97 13.328)" fill="#54777d"/>
      <path id="パス_626" data-name="パス 626" d="M6.25,43.517a48.727,48.727,0,0,0-.568,9.3,51.065,51.065,0,0,1-.33,9.837.832.832,0,0,0,1.373.805,4.421,4.421,0,0,0,1.347-3.341,19.391,19.391,0,0,1,.37-4.939c.792-2.879,2.205-5.559,2.152-8.623a.834.834,0,0,0-1.413-.581,6.932,6.932,0,0,0-2.139,4.661l1.624-.224-.687-4.2c-.158-.938-1.611-.687-1.624.224A11.05,11.05,0,0,0,6.62,48.9c.211.951,1.558.66,1.624-.224l.673-9.1c.079-1.056-1.571-1.056-1.651,0l-.673,9.1,1.624-.224a8.852,8.852,0,0,1-.2-2.034L6.4,46.647l.687,4.2c.158.964,1.558.66,1.624-.224a5.229,5.229,0,0,1,1.664-3.5l-1.413-.581c.053,2.76-1.215,5.229-1.981,7.817a13.011,13.011,0,0,0-.607,3.552c-.013,1.479.462,3.262-.792,4.371l1.373.805a47.706,47.706,0,0,0,.449-9.4,51.516,51.516,0,0,1,.462-9.732c.145-1.043-1.453-1.492-1.6-.436h0Z" transform="translate(1.664 12.429)" fill="#54777d"/>
      <path id="パス_627" data-name="パス 627" d="M11.485,16.393c-.436,1.585-1.9,2.588-2.72,3.961-.9,1.519-.845,3.3-.845,5A75.278,75.278,0,0,0,8.963,37.665c.172,1.043,1.769.607,1.6-.436a72.969,72.969,0,0,1-.977-11.871c0-1.835,0-3.486,1.188-4.978a10.32,10.32,0,0,0,2.311-3.552.829.829,0,0,0-1.6-.436Z" transform="translate(2.49 5.063)" fill="#54777d"/>
      <path id="パス_628" data-name="パス 628" d="M10.037,29.394A84.074,84.074,0,0,1,10.71,38.5c.013.739.026,1.492.013,2.232s.092.805-.475,1.241c-1.2.924-2.4,1.849-3.6,2.76l2.43.99C8.2,40.394,10.5,35.072,12.506,30.252L9.324,29.38c-1.439,4-1.677,8.279-1.9,12.492h3.3a20.873,20.873,0,0,1,.555-5.2L8.1,35.8c-.475,2.06-.924,4.133-1.215,6.233-.132.977-.211,1.954-.277,2.945a4.494,4.494,0,0,1-.541,2.192,1.668,1.668,0,0,0,.99,2.43l.805.264c2.02.66,2.892-2.535.872-3.182l-.8-.264.99,2.43c1.083-1.7.924-3.763,1.136-5.691a57,57,0,0,1,1.228-6.47c.489-2.139-2.694-2.945-3.182-.872A24.659,24.659,0,0,0,7.422,41.9a1.653,1.653,0,0,0,3.3,0c.2-3.935.436-7.87,1.783-11.607a1.669,1.669,0,0,0-1.149-2.034,1.7,1.7,0,0,0-2.034,1.149C7.026,34.9,4.9,40.592,5.891,46.639a1.662,1.662,0,0,0,2.43.99l4.041-3.09a3.852,3.852,0,0,0,1.505-1.888,8.374,8.374,0,0,0,.158-2.628,83.943,83.943,0,0,0-.7-10.6,1.7,1.7,0,0,0-1.651-1.651c-.805,0-1.769.766-1.651,1.651h0Z" transform="translate(1.759 8.897)" fill="#54777d"/>
      <path id="パス_629" data-name="パス 629" d="M47.119,1.043a24.559,24.559,0,0,1,.713,5.189.823.823,0,0,0,.819.819.814.814,0,0,0,.819-.819A26.957,26.957,0,0,0,48.7.607a.829.829,0,1,0-1.6.436h0Z" transform="translate(15.04 -0.002)" fill="#54777d"/>
      <path id="パス_630" data-name="パス 630" d="M49.126,5.393a17.381,17.381,0,0,0,1.915-.819c.634-.264,1.241-.475,1.875-.673a25.8,25.8,0,0,1,4.027-.911.84.84,0,0,0,.581-1.017.858.858,0,0,0-1.017-.581A25,25,0,0,0,52.48,2.3c-.634.2-1.254.423-1.875.673A20.344,20.344,0,0,1,48.69,3.8a.829.829,0,0,0,.436,1.6Z" transform="translate(15.37 0.441)" fill="#54777d"/>
      <path id="パス_631" data-name="パス 631" d="M67.191,15.221c2.852-.462,4.978,4.384,5.8,6.523A30.924,30.924,0,0,1,74.7,29.628c.594,5.9.277,11.871,1.835,17.655a.829.829,0,1,0,1.6-.436c-1.849-6.88-.99-14.089-2.324-21.048a23.555,23.555,0,0,0-3-8.121c-1.347-2.152-3.262-4.5-6.061-4.054-1.043.172-.607,1.756.436,1.6Z" transform="translate(21.153 4.346)" fill="#54777d"/>
      <path id="パス_632" data-name="パス 632" d="M72.714,66c4.252,0,4.252-6.6,0-6.6S68.462,66,72.714,66Z" transform="translate(22.232 19.033)" fill="#54777d"/>
      <path id="パス_633" data-name="パス 633" d="M23.543,37.589l-.485-.874C29.755,33,48.065,16.221,48.249,16.052l.676.737C48.169,17.482,30.343,33.813,23.543,37.589Z" transform="translate(7.419 5.26)" fill="#54777d"/>
    </g>
    <g id="_-2" transform="translate(2.896 23.449)">
      <path id="パス_634" data-name="パス 634" d="M55.148,104.624q-.3,0-.607-.012c-4.527-.175-9.23-1.93-13.979-5.215a59.333,59.333,0,0,1-11.33-10.634A98.739,98.739,0,0,1,18.916,73.788l-3.951-.62-.113-.108c-2.524-2.411-2.372-8.833-2.307-10.225A17.969,17.969,0,0,1,9.6,59.6a11.731,11.731,0,0,1-1.769-3.621A7.434,7.434,0,0,1,7.91,51.6c.5-1.483,1.289-2.328,2.355-2.513,1.136-.2,2.5.391,4.041,1.746a16.631,16.631,0,0,1,1.919,2l-.787.618c-.818-1.04-3.31-3.675-5-3.381-.675.117-1.206.738-1.577,1.845a6.449,6.449,0,0,0-.07,3.785A10.71,10.71,0,0,0,10.4,59a16.882,16.882,0,0,0,2.964,3.212l.207.163-.017.263a28.736,28.736,0,0,0,.079,4.032c.248,2.658.869,4.573,1.8,5.554l4.127.647.117.221a96.771,96.771,0,0,0,10.329,15.04A58.307,58.307,0,0,0,41.139,98.58c4.587,3.172,9.109,4.865,13.441,5.033a15.786,15.786,0,0,0,6.752-1.285A24.164,24.164,0,0,0,67.48,98.45,51.873,51.873,0,0,0,77.57,86.218a105.149,105.149,0,0,0,8.663-17.672l-.128-19.274.466-.034c1.6-.118,2.953.748,3.9,2.5a9.645,9.645,0,0,1,.92,2.58v.029a20.883,20.883,0,0,1-.157,6.314,16.71,16.71,0,0,1-1.487,4.46,12.547,12.547,0,0,1-2.464,3.45l-.053.146.006.95H86.87A106.473,106.473,0,0,1,78.414,86.74a52.853,52.853,0,0,1-10.29,12.475C63.868,102.806,59.505,104.624,55.148,104.624ZM87.112,50.239l.112,16.94a12.963,12.963,0,0,0,1.659-2.553,15.74,15.74,0,0,0,1.38-4.182,19.9,19.9,0,0,0,.142-5.958,8.779,8.779,0,0,0-.824-2.289,3.256,3.256,0,0,0-2.469-1.958Z" transform="translate(-0.369 -7.573)" fill="#54777d"/>
      <path id="パス_635" data-name="パス 635" d="M23.34,47.387l-.46-.887A26.051,26.051,0,0,1,28.8,44.43a14.289,14.289,0,0,1,5.124-.258,7.231,7.231,0,0,1,4.571,2.45l-.764.645C33.479,42.228,23.441,47.335,23.34,47.387Z" transform="translate(4.461 -9.177)" fill="#54777d"/>
      <path id="パス_636" data-name="パス 636" d="M64.154,47.282a7.315,7.315,0,0,0-3.74-1.99,11.455,11.455,0,0,0-4.007-.063,17.421,17.421,0,0,0-4.492,1.306l-.432-.9a18.186,18.186,0,0,1,4.781-1.394,12.446,12.446,0,0,1,4.357.075,8.3,8.3,0,0,1,4.241,2.262Z" transform="translate(13.624 -9.164)" fill="#54777d"/>
      <path id="パス_637" data-name="パス 637" d="M46.836,65.878a4.448,4.448,0,0,1-2.613-.729l-.044-.034-.035-.043c-.562-.677-1.968-.914-3.959-.668a19.967,19.967,0,0,0-3.086.654l-.173.054-.168-.07c-1.063-.442-1.579-1.91-1.579-4.489a25.463,25.463,0,0,1,.26-3.47l.988.153a24.9,24.9,0,0,0-.248,3.328c0,1.852.3,3.1.827,3.479a20.884,20.884,0,0,1,3.043-.63c2.371-.295,3.992.03,4.818.966a3.394,3.394,0,0,0,1.38.459,6.792,6.792,0,0,0,4.11-1.022c.663-.374,1.167-.642,1.5-.8.266-.124.689-.322.972-.086a6.168,6.168,0,0,1,3.808-.67c.1-.488.258-1.256.39-2.058.411-2.493.224-2.956.2-3a.283.283,0,0,0,.183.118l.2-.98a.71.71,0,0,1,.461.326c.216.335.379,1.029-.049,3.644-.229,1.39-.522,2.69-.528,2.7l-.133.583-.55-.233c-2.021-.858-5.059,1.329-5.229,1.453l-.01.007-.285-.384c-.132.073-.278.154-.439.245a8.163,8.163,0,0,1-4.012,1.192Z" transform="translate(8.489 -5.239)" fill="#54777d"/>
      <path id="パス_638" data-name="パス 638" d="M61.892,68.529l-.4,1a26.033,26.033,0,0,1-3.392,5.68,19.884,19.884,0,0,1-4.294,4.141,13.342,13.342,0,0,1-6.127,2.372,10.328,10.328,0,0,1-1.153.064A13.364,13.364,0,0,1,40.171,80a25.519,25.519,0,0,1-5.208-3.864,36.845,36.845,0,0,1-4.867-5.6l-.549-.813.98.033.559.02c2.059.075,7.528.275,13.419.275,8.329,0,13.988-.413,16.364-1.195ZM46.527,80.785a9.325,9.325,0,0,0,1.041-.058,12.354,12.354,0,0,0,5.671-2.2,18.889,18.889,0,0,0,4.075-3.934A26.425,26.425,0,0,0,60.128,70.1c-2.867.638-8.109.961-15.622.961-5.507,0-10.643-.174-12.987-.259a37.668,37.668,0,0,0,4.144,4.623,24.491,24.491,0,0,0,5,3.7,12.377,12.377,0,0,0,5.864,1.66Z" transform="translate(6.833 -1.23)" fill="#54777d"/>
      <path id="パス_639" data-name="パス 639" d="M50.637,37.937l-.675-1.882a28.185,28.185,0,0,1,5.293-1.219,22.759,22.759,0,0,1,4.982-.151,13.852,13.852,0,0,1,5.195,1.424l-.922,1.775C58.98,35.009,50.72,37.908,50.637,37.937Z" transform="translate(13.175 -12.039)" fill="#54777d"/>
      <path id="パス_640" data-name="パス 640" d="M39.588,38.531c-.313-.046-.722-.152-1.288-.3a30.529,30.529,0,0,0-17.325.093l-.589-1.911A32.4,32.4,0,0,1,38.8,36.3c.468.121.873.226,1.081.257Z" transform="translate(3.683 -11.912)" fill="#54777d"/>
      <path id="パス_641" data-name="パス 641" d="M17.288,73.058c-1.719-3.5-4.054-20.238-4.153-20.949l.991-.137c.024.172,2.411,17.284,4.06,20.646Z" transform="translate(1.423 -6.774)" fill="#54777d"/>
      <path id="線_214" data-name="線 214" d="M4.674,9.356-.436.245l.872-.49,5.11,9.111Z" transform="translate(89.713 83.189)" fill="#54777d"/>
      <path id="線_215" data-name="線 215" d="M5.832,21.887-.48.139.48-.139,6.792,21.609Z" transform="translate(92.05 65.495)" fill="#54777d"/>
      <path id="パス_642" data-name="パス 642" d="M2.329,85.454l-.2-.98c1.74-.352,2.908-2.314,3.582-3.9A18.776,18.776,0,0,0,6.8,77.032l.984.176C7.725,77.511,6.405,84.63,2.329,85.454Z" transform="translate(-2.23 1.263)" fill="#54777d"/>
      <path id="パス_643" data-name="パス 643" d="M60.343,31.331c-2.484-1.62-4.722-4.376-6.65-8.19A34.838,34.838,0,0,1,51.541,17.9l.958-.285h0a34.536,34.536,0,0,0,2.1,5.088c1.269,2.507,3.392,5.893,6.3,7.788Z" transform="translate(13.726 -17.76)" fill="#54777d"/>
    </g>

<svg id="アセット_9" data-name="アセット 9" xmlns="http://www.w3.org/2000/svg" width="103.846" height="120.5" viewBox="0 0 103.846 120.5">
  <g id="_イヤー_1-2" transform="translate(4.876 22.446)">
    <path id="パス_605" data-name="パス 605" d="M7.186,47.215A2.835,2.835,0,0,0,5.865,49.1a11.016,11.016,0,0,1-.383,1.439l.172-.4a4.553,4.553,0,0,1-.37.713,1.7,1.7,0,0,0-.172,1.268,1.674,1.674,0,0,0,.753.99,1.7,1.7,0,0,0,1.268.172,1.769,1.769,0,0,0,.99-.753,6.371,6.371,0,0,0,.739-1.717,9.368,9.368,0,0,1,.291-1.2l-.172.4a2.794,2.794,0,0,1,.145-.277l-.264.33a1.709,1.709,0,0,1,.158-.158l-.33.264a.84.84,0,0,1,.132-.079,1.674,1.674,0,0,0,.753-.99A1.636,1.636,0,0,0,9.4,47.835a1.65,1.65,0,0,0-2.258-.581h0Z" transform="translate(-3.303 -7.376)" fill="#404143"/>
    <path id="パス_606" data-name="パス 606" d="M7.518,48.312a3.159,3.159,0,0,1-.357.9,8.038,8.038,0,0,0-.555,1.453,27.253,27.253,0,0,0-.475,2.72c-.277,1.941-.475,3.9-.581,5.863A1.668,1.668,0,0,0,7.2,60.9a1.686,1.686,0,0,0,1.651-1.651c.092-1.743.251-3.578.489-5.189a22.892,22.892,0,0,1,.449-2.522,3.672,3.672,0,0,1,.383-.977,4.7,4.7,0,0,0,.528-1.373A1.7,1.7,0,0,0,9.551,47.15,1.667,1.667,0,0,0,7.518,48.3h0Z" transform="translate(-3.147 -7.351)" fill="#404143"/>
    <path id="パス_607" data-name="パス 607" d="M9.2,59.8a12.872,12.872,0,0,0-.066,5.123,1.649,1.649,0,0,0,3.011.409,1.838,1.838,0,0,0,.172-1.268l-.079-.475.053.436a10.6,10.6,0,0,1,0-2.892l-.053.436q.059-.436.158-.872a1.7,1.7,0,0,0-.172-1.268,1.648,1.648,0,0,0-3.011.409h0Z" transform="translate(-2.07 -3.662)" fill="#404143"/>
    <path id="パス_608" data-name="パス 608" d="M10.372,68.235a6.618,6.618,0,0,0,.423,1.109,4.488,4.488,0,0,0,.409.687,6.85,6.85,0,0,0,.739.9,5.636,5.636,0,0,0,.938.739,1.273,1.273,0,0,0,.607.2,1.248,1.248,0,0,0,.66-.026,1.646,1.646,0,0,0,1.162-2.02,1.815,1.815,0,0,0-.753-.99l-.277-.2.33.264a5.07,5.07,0,0,1-.753-.753l.264.33a4.877,4.877,0,0,1-.541-.911l.172.4a4.3,4.3,0,0,1-.2-.581,1.769,1.769,0,0,0-.753-.99,1.273,1.273,0,0,0-.607-.2,1.248,1.248,0,0,0-.66.026,1.769,1.769,0,0,0-.99.753,1.75,1.75,0,0,0-.172,1.268h0Z" transform="translate(-1.617 -1.247)" fill="#404143"/>
    <path id="パス_609" data-name="パス 609" d="M12.917,69.981a1.652,1.652,0,0,0,0-3.3,1.652,1.652,0,0,0,0,3.3Z" transform="translate(-1.296 -1.079)" fill="#404143"/>
    <path id="パス_610" data-name="パス 610" d="M4.219,80.443a7.754,7.754,0,0,0,3.552,1.822,1.7,1.7,0,0,0,1.268-.172,1.648,1.648,0,0,0-.409-3.011,5.8,5.8,0,0,1-1.175-.37l.4.172A6.56,6.56,0,0,1,6.5,78.092l.33.264c-.106-.079-.2-.158-.291-.238a1.746,1.746,0,0,0-1.162-.489,1.662,1.662,0,0,0-1.162.489,1.72,1.72,0,0,0-.489,1.162,1.564,1.564,0,0,0,.489,1.162h0Z" transform="translate(-3.73 2.43)" fill="#404143"/>
    <path id="パス_611" data-name="パス 611" d="M68.781,26.382c.185,3.42,1.4,6.655,1.664,10.062.132,1.73.132,3.46.423,5.176a20.848,20.848,0,0,0,1.479,4.608,44.6,44.6,0,0,1,2.641,9.666c.436,2.628,1.136,6.074-.766,8.293-1.373,1.611.951,3.948,2.337,2.337,1.941-2.271,2.364-5.071,2.113-7.989A45.464,45.464,0,0,0,76.571,48c-.555-1.611-1.294-3.156-1.862-4.767a19.709,19.709,0,0,1-.885-5.546c-.2-3.856-1.545-7.5-1.743-11.33-.106-2.113-3.407-2.126-3.3,0h0Z" transform="translate(17.116 -14.511)" fill="#404143"/>
    <path id="パス_612" data-name="パス 612" d="M72.429,60.283,71.4,52.39l.016-.128c1.3-10.189-1.392-15.728-2-16.82-1.231-.667-6.625-3.594-8.891-4.946C57.93,28.949,49.354,18.8,48.385,17.644l1.531-1.287c3.72,4.423,9.887,11.381,11.631,12.422,2.475,1.477,9,5,9.061,5.036l.224.121.139.213a16.949,16.949,0,0,1,1.836,4.687,36.366,36.366,0,0,1,.606,13.551l1,7.637Z" transform="translate(10.826 -17)" fill="#303031"/>
  </g>
  <g id="_" transform="translate(0 0)">
    <path id="パス_613" data-name="パス 613" d="M50.54,2.835c1.611.185.026-.119-.3-.224-.423-.145-.832-.317-1.241-.489a19.251,19.251,0,0,0-2.76-1.017A21.907,21.907,0,0,0,39.1.828c-4.82.4-9.534,1.545-13.02,5.137-1.136,1.162-2.113,2.5-3.209,3.7-.845.938,1.03-.436-.119.079a12.894,12.894,0,0,0-1.2.621,11.218,11.218,0,0,0-3.671,3.46,10.865,10.865,0,0,1-1.254,1.941,2.66,2.66,0,0,1,1.162-1.188l-.343.211c-.357.185-.713.4-1.056.607a9.868,9.868,0,0,0-4.939,6.061c-.792,3.354,1.043,7.315,4.608,8.121,3.38.766,7.276-1.017,8.121-4.608a4.15,4.15,0,0,1-1.426,1.954c-.805.713.066,0,.291-.132.528-.3,1.056-.594,1.558-.938A11.453,11.453,0,0,0,27.881,22.6c.185-.264,1.215-1.453,1.122-1.756a2.145,2.145,0,0,1-.753.819q-.535.376-.04.079a6.486,6.486,0,0,0,1.2-.621,15.717,15.717,0,0,0,2.8-2.139c1.07-1.017,1.9-2.271,2.892-3.354.2-.224.462-.436.647-.673.383-.5-1.043.528,0,0,.172-.092,1.413-.792.528-.343s.489-.132.607-.172c.317-.092.647-.172.977-.238.053,0,1.651-.277.621-.132s.436-.026.647-.053c.423-.04.845-.066,1.268-.092q1.228-.079,2.456-.079c1.453,0-.462-.277.145.04a9.513,9.513,0,0,0,1.268.423,23.908,23.908,0,0,0,6.3,1.7c3.446.4,6.748-3.314,6.6-6.6-.172-3.909-2.918-6.18-6.6-6.6h0Z" transform="translate(3.564 0.213)" fill="#404143"/>
    <path id="パス_614" data-name="パス 614" d="M14.062,17.454a35.331,35.331,0,0,0-2.879,9.058c-.5,2.773-.819,5.6-1.505,8.332-.317,1.294-.766,2.535-.99,3.843a58.449,58.449,0,0,0-.5,5.876c-.092,1.519-.238,3.024-.4,4.542-.026.238-.357,2.76-.172,1.479-.119.858-.264,1.717-.409,2.575-.568,3.394.885,7.276,4.608,8.121,3.182.726,7.513-.964,8.121-4.608s1.07-7.183,1.36-10.8c.106-1.439.224-2.892.251-4.344s-.37.9.079-.436c.238-.713.436-1.479.634-2.205a77.982,77.982,0,0,0,1.453-7.764c.211-1.294.449-2.588.753-3.856.172-.726.37-1.439.607-2.152.119-.357.238-.7.37-1.043q-.475,1.07,0,.04c1.479-3.116.977-7.263-2.364-9.032-2.931-1.545-7.461-.964-9.032,2.364h0Z" transform="translate(2.224 4.569)" fill="#404143"/>
    <path id="パス_615" data-name="パス 615" d="M21.922,49.034c.211-1.043-.343.805-.766.964.2-.079.475-.5.634-.647.621-.594,1.32-1.1,1.941-1.69a25.777,25.777,0,0,0,4-5.454c.185-.3.37-.621.568-.924.238-.37,1.188-1.254.264-.409.687-.621,1.281-1.32,1.994-1.915,1.624-1.4,3.328-2.72,4.991-4.067,6.906-5.6,13.812-11.2,20.586-16.968,1.994-1.69,2.311-4.965,1.36-7.21-1.1-2.588-3.328-3.763-6.035-4.054C45.9,6.053,40.184,7.743,35.034,9.724a12.447,12.447,0,0,0-4.648,2.72A16.773,16.773,0,0,0,27.8,16.59c-.251.449-.528.872-.805,1.307-.845,1.32.885-.845-.238.264-.357.357-.739.713-1.083,1.083-.555.475-.515.449.145-.066-.277.2-.555.4-.845.581-2.879,1.9-4.371,5.929-2.364,9.032,1.849,2.879,5.942,4.4,9.032,2.364a23.88,23.88,0,0,0,6.14-5.77,17.047,17.047,0,0,0,1.651-2.575,14.234,14.234,0,0,0,.687-1.466c.224.264-1.571,1.109-1.6,1.109a36.735,36.735,0,0,1,6.893-2.192c.594-.145,1.188-.251,1.783-.383,1.228-.277-.423-.04.33-.053a32.171,32.171,0,0,1,3.909.04L46.76,8.588c-7.091,6.035-14.34,11.9-21.576,17.773-1.624,1.307-3.314,2.575-4.833,4a25.49,25.49,0,0,0-4.331,5.665c-.238.383-.462.779-.7,1.162-.343.528-.634.9-.053.2a16.178,16.178,0,0,1-2.126,2.02,11.284,11.284,0,0,0-3.975,6.127c-.673,3.38.964,7.289,4.608,8.121,3.288.753,7.395-.99,8.121-4.608h0Z" transform="translate(2.842 2.092)" fill="#404143"/>
    <path id="パス_616" data-name="パス 616" d="M43.85,17.519A10.457,10.457,0,0,0,53.2,11.973L49.251,15.01l.449-.092H46.188c-.383-.079-1.017-.489-.211-.132.687.291,1.347.621,2.047.885a11.094,11.094,0,0,0,2.258.568q1.664.257,3.328.4l1.056.079c.172.013,1.307.185.423.026s.251.066.409.106c.423.092.858.2,1.268.317.33.092.66.211,1,.317.805.251.291-.079-.119-.079.515,0,1.426.713,1.862.977.317.185.621.409.938.607,1.043.647-.357-.357.224.132,1.136.964,2.232,1.954,3.3,3.011l.792.792c.264.264.568.9.3.224-.172-.436-.607-1.347-.317-.343.106.357.238.713.37,1.07a24.021,24.021,0,0,0,2.5,5.057,19.226,19.226,0,0,0,1.268,1.915c.475.541-.185-.911-.053-.238q.158.555,0-.2a2.87,2.87,0,0,1-.013-1.254,6.667,6.667,0,0,0,4.608,8.121,6.827,6.827,0,0,0,8.121-4.608,10.927,10.927,0,0,0-1.532-8.926c-.515-.819-1.109-1.585-1.6-2.43-.29-.489-.528-.99-.779-1.492.647,1.268-.066-.291-.145-.528a13.042,13.042,0,0,0-2.548-4.82c-.634-.726-1.334-1.386-2.02-2.06A42.917,42.917,0,0,0,67.13,7.6,26.261,26.261,0,0,0,53.358,3.417c-1.281-.053.7.211-.066.013-.2-.053-1.8-.515-.938-.185s-.423-.224-.594-.3a9.553,9.553,0,0,0-3.79-.99,8.265,8.265,0,0,0-3.79.99,4.882,4.882,0,0,0-1.849,1.7,3.088,3.088,0,0,0-.7,1.043l.541-.673c-.515.489-.4.4.357-.264.37-.224,2.469-.436,1.334-.436-3.46,0-6.761,3.05-6.6,6.6a6.745,6.745,0,0,0,6.6,6.6h0Z" transform="translate(11.891 0.622)" fill="#404143"/>
    <path id="パス_617" data-name="パス 617" d="M48.5,18.764a5.3,5.3,0,0,1-2.879.423,12.35,12.35,0,0,1,1.36.264l2.4.475c.9.185,1.809.357,2.707.541l.885.2c.832.172.04.026-.33-.172l-.66-.489c-.541-.739-.673-.911-.4-.489.145.238.317.475.475.713a11.434,11.434,0,0,0,2.39,2.641,8.328,8.328,0,0,1,1.505,1.083c-.026-.053-1.017-.938-.977-.951a26.268,26.268,0,0,0,1.532,2.39,39.667,39.667,0,0,0,7.342,6.761A33.08,33.08,0,0,0,68.1,35.072c.607.343,1.241.634,1.875.938.383.185.766.357,1.136.568s1.136.911.092-.013c2.588,2.284,6.827,2.733,9.336,0,2.3-2.5,2.76-6.893,0-9.336a24.357,24.357,0,0,0-5.282-3.288,22.573,22.573,0,0,1-2.3-1.386c-.3-.2-.581-.409-.885-.621-1.453-1.03,1,.858-.37-.291-1.281-1.07-2.575-2.152-3.8-3.288-.3-.277-.581-.581-.872-.872-.845-.792.238.607,0-.026a10.326,10.326,0,0,0-2.06-3.063c-.343-.357-2.456-2.311-2.733-2.086.3-.238,1.32,1.439,1.043.924a10.112,10.112,0,0,0-.594-.872,10.806,10.806,0,0,0-6.589-4.49C51.485,6.8,46.322,5.2,41.872,7.408c-3.1,1.545-4.212,6.18-2.364,9.032A6.764,6.764,0,0,0,48.54,18.8h0Z" transform="translate(12.325 2.018)" fill="#404143"/>
    <path id="パス_618" data-name="パス 618" d="M67.474,28.135a38.932,38.932,0,0,1,2.958,6.114,54.36,54.36,0,0,1,1.69,6.3c.977,4.344,2.034,8.874.687,13.257-.621,2.034,2.562,2.905,3.182.872,1.466-4.793.489-9.758-.581-14.525a55.676,55.676,0,0,0-1.967-7.263,44.583,44.583,0,0,0-3.116-6.431c-1.03-1.862-3.882-.2-2.852,1.664h0Z" transform="translate(21.504 8.216)" fill="#404143"/>
    <path id="パス_619" data-name="パス 619" d="M78.578,53.9A15.9,15.9,0,0,0,76.9,45.921a30.245,30.245,0,0,0-1.651-2.747,8.918,8.918,0,0,1-1.268-2.535,18.777,18.777,0,0,1-.158-3.235,24.279,24.279,0,0,0-.621-4.252c-.581-2.35-1.862-4.767-4.133-5.863a3.356,3.356,0,0,0-4.265.845,3.3,3.3,0,0,0,.264,4.331c.172.158.343.33.5.5-.158-.2-.119-.132.106.2,0,0,.409.885.264.5a9.358,9.358,0,0,1,.343,1.228c.04.172.066.357.106.541q-.059-.416,0,.2c.053,2.113-.158,4.212-.079,6.325.172,4.278,1.162,8.583,1.835,12.809.277,1.756,2.482,2.747,4.067,2.311a3.4,3.4,0,0,0,2.311-4.067c-.687-4.278-1.73-8.609-1.6-12.914s.277-9.032-3.169-12.307l-4,5.189a2.818,2.818,0,0,1,.555.3c-.264-.185-.251-.145.026.119-.185-.687.4.885.119.238a10.533,10.533,0,0,1,.673,2.628c.357,2.284-.066,4.6.726,6.827a32.524,32.524,0,0,0,2.918,5.321A9.3,9.3,0,0,1,72,53.9a3.3,3.3,0,1,0,6.6,0h0Z" transform="translate(20.501 8.612)" fill="#404143"/>
    <path id="パス_620" data-name="パス 620" d="M72.05,51.465s.106.106.145.158l-.515-.673a1.485,1.485,0,0,1,.158.277l-.33-.792a1.393,1.393,0,0,1,.079.317l-.119-.872a1.272,1.272,0,0,1,0,.317l.119-.872a2.112,2.112,0,0,1-.066.277l2.311-2.311a.621.621,0,0,0-.066.026l.872-.119h-.106l.872.119a.538.538,0,0,1-.092-.026l.792.33s-.066-.04-.092-.053l.673.515a.755.755,0,0,1-.106-.106l.515.673s-.066-.106-.106-.158l.33.792c-.066-.172-.092-.343-.145-.515a5.156,5.156,0,0,0-.409-.964,3.909,3.909,0,0,0-.317-.423,3.2,3.2,0,0,0-.33-.409l-.357-.277-.357-.277a3.742,3.742,0,0,0-.475-.211,3.2,3.2,0,0,0-1.426-.33h-.238a7.835,7.835,0,0,0-.951.132.385.385,0,0,0-.119.026c-.079.026-.158.053-.224.079-.33.132-.673.264-.99.423A3.811,3.811,0,0,0,69,48.89a3.612,3.612,0,0,0,0,1.875,3.527,3.527,0,0,0,.185.475A2.574,2.574,0,0,0,69.9,52.35a3.387,3.387,0,0,0,1.571.911,2.49,2.49,0,0,0,1.32.053,2.989,2.989,0,0,0,2.152-1.241,2.5,2.5,0,0,0,.594-1.122l.119-.872a3.344,3.344,0,0,0-.449-1.664l-.515-.673a3.3,3.3,0,0,0-1.453-.845h-.026l.792.33-.053-.026.673.515-.04-.04.515.673a.092.092,0,0,1-.026-.053l.33.792a.521.521,0,0,0-.026-.079l.119.872v-.092l-.119.872s0-.04.013-.053l-.33.792a.362.362,0,0,1,.053-.092l-.515.673.106-.106-.673.515a2.591,2.591,0,0,1,.423-.224l-.792.33a1.426,1.426,0,0,1,.462-.132l-.872.119a1.943,1.943,0,0,1,.277,0l-.872-.119.158.04-.792-.33s.079.04.119.066l-.673-.515a.992.992,0,0,0,.106.092l-.515-.673s.066.106.092.158l-.33-.792a3.945,3.945,0,0,1,.119.423,3.209,3.209,0,0,0,.5,1.149,3.911,3.911,0,0,0,1.294,1.294,3.866,3.866,0,0,0,.924.409h.053l.872.119h.106a3.062,3.062,0,0,0,.951-.145,3.692,3.692,0,0,0,1.967-1.519l.33-.792a.622.622,0,0,1,.026-.066.336.336,0,0,1,.026-.092,7.079,7.079,0,0,0,.145-1.043,4.5,4.5,0,0,0-.145-1.268,4.492,4.492,0,0,0-1.228-2.1,2.529,2.529,0,0,0-1.056-.687A2.488,2.488,0,0,0,74.44,45.8a2.457,2.457,0,0,0-1.268.291,2.335,2.335,0,0,0-1.056.687l-.515.673a3.213,3.213,0,0,0-.449,1.664l.119.872a3.3,3.3,0,0,0,.845,1.453h0Z" transform="translate(22.024 14.675)" fill="#404143"/>
    <path id="パス_621" data-name="パス 621" d="M70.127,53.142c1.347,5.123.581,10.63,1.083,15.872a35.358,35.358,0,0,1-.145,8.187,32.1,32.1,0,0,0,.2,8.926c.264,1.769,2.482,2.733,4.067,2.311,1.888-.515,2.575-2.284,2.311-4.067a28.089,28.089,0,0,1,.2-8.147,37.147,37.147,0,0,0-.132-8.477c-.462-5.454.2-11-1.2-16.347-1.07-4.107-7.447-2.364-6.365,1.756h0Z" transform="translate(22.39 15.719)" fill="#404143"/>
    <path id="パス_622" data-name="パス 622" d="M72.6,45.876c.264,10.154.462,20.309.779,30.463a26.383,26.383,0,0,0,.964,7.038c.621,2.06.66,4.292,1.426,6.3.264.7,1.136,1.928,1.162,2.72,0-.211.04-.106-.383.357s-.858.9-1.281,1.347c-1.386,1.453-2.905,3.711-4.727,4.6l4.846,1.967c-.673-2.456-2.232-4.556-3.077-6.959a62.09,62.09,0,0,1-1.967-7.342c-.489-2.192.383-4.358,1-6.47a34.823,34.823,0,0,1,2.945-7.236L68.14,70.991c.053,4.529-.119,9.045-.462,13.561A11.273,11.273,0,0,0,68.5,90.6a12.942,12.942,0,0,0,1.637,2.324c.132.158.7.845.713.858L77,92.119a8.041,8.041,0,0,1-1.268-2.337c-1.307-4.027-7.685-2.3-6.365,1.756A13.833,13.833,0,0,0,71.3,95.446a3.45,3.45,0,0,0,3.724,1.519,3.332,3.332,0,0,0,2.43-3.182,9.116,9.116,0,0,0-2.35-5.176c-1.056-1.307-.951-2.4-.819-4.067.343-4.516.515-9.032.462-13.561-.04-3.209-4.529-4.569-6.153-1.664a42.252,42.252,0,0,0-3.446,8.253c-.872,2.852-1.954,5.876-1.519,8.742a52.257,52.257,0,0,0,2.126,8.583,37.95,37.95,0,0,0,1.624,4.041,23.186,23.186,0,0,1,1.651,3.473,3.343,3.343,0,0,0,4.846,1.967c2.245-1.083,3.935-3.407,5.638-5.176,1.8-1.875,4-3.75,4.027-6.563.013-2.416-1.492-4.292-1.888-6.589a32.914,32.914,0,0,0-.753-3.909,16.939,16.939,0,0,1-.766-3.407c-.489-5.282-.33-10.7-.462-15.991l-.436-16.876c-.106-4.239-6.708-4.252-6.6,0h0Z" transform="translate(20.309 13.675)" fill="#404143"/>
    <path id="パス_623" data-name="パス 623" d="M16.349,74.508c1.149,1.981,1.426,4.384,3.116,6.021a10.374,10.374,0,0,0,2.786,1.888c.343.145.2.5.132-.04a1.965,1.965,0,0,1-.066.832c-.475,2.245-1.835,4.49-2.76,6.576-.475,1.07-.977,2.126-1.545,3.143a7.563,7.563,0,0,1-1.651,2.4L18.911,95a11.264,11.264,0,0,1-3.09-2.179c-1.307-1.083-2.588-2.192-3.935-3.222-1.136-.872-2.364-1.611-3.473-2.509a9.878,9.878,0,0,1-1.1-1,2.927,2.927,0,0,1-.475-.568c-.119-.158-.37-.9-.317-.343l-.449,1.664c.277-.475.673-.594,1.043-.951.647-.277.634-.357-.066-.238a1.1,1.1,0,0,1,.541.264c.621.726,1.36,1.109,1.743,2.073,1.043,2.654,1.307,5.493,4.133,7,6.576,3.512,11.409-5.1,11.409-10.524,0-3.037-1.241-6.1-4.133-7.408a5.888,5.888,0,0,0-7.764,2.76c-1.439,2.588-2.218,5.85-.607,8.543A6.139,6.139,0,0,0,20.6,90.353a3.393,3.393,0,0,0,1.188-4.516,36.242,36.242,0,0,0-6.351-10.1A4.455,4.455,0,0,0,9.707,75c-.872.515-1.69,1.2-2.509,1.8A10.119,10.119,0,0,1,5.085,78.2H6.841l-.357-.119,1.967,4.846c2.205-2.892,2.826-6.919,3.354-10.432a61.384,61.384,0,0,0,.647-11.858c-.2-4.225-6.774-4.265-6.6,0,.119,3.011,1.36,5.784,2.469,8.543s2.416,5.7,3.763,8.491A3.38,3.38,0,0,0,15.807,79.2c2.588-.436,3.684-2.945,3.671-5.308-.026-4.252-6.629-4.252-6.6,0,0,.594,0,.634.026.119l1.188-1.188h-.04l3.724,1.532c-1.1-2.271-2.139-4.569-3.09-6.919-.845-2.086-2.152-4.516-2.232-6.787H5.825a53.825,53.825,0,0,1-.409,10.1c-.423,2.958-.832,6.417-2.681,8.847-1.373,1.8.172,4.252,1.967,4.846a4.964,4.964,0,0,0,4.529-1.03c.687-.489,1.36-.977,2.047-1.466L12.3,81.2c.647-.33.7-.449.172-.343L10.8,80.41a9.805,9.805,0,0,1,1.056,1.413c.568.792,1.122,1.6,1.637,2.43a42.632,42.632,0,0,1,2.588,4.925l1.188-4.516c.581-.3.5.489.792.462a5.118,5.118,0,0,1,.277-1.281c.2-.489,1.162-1.637-.158-.739-.224.145-.158-.383-.2-.106-.013.119.238.555.264.726a6.471,6.471,0,0,1-.713,3.935c-.238.462-.951.964-1.1,1.373.066-.185-.436.489-.145.119a.5.5,0,0,1,.423.119.784.784,0,0,1-.185-.3,9.111,9.111,0,0,0-.621-1.994,14.243,14.243,0,0,0-.977-2.522A10.743,10.743,0,0,0,11.344,80.5C7.753,78.086,3.765,79.327,1.1,82.51s.211,7.289,2.958,9.481c2.416,1.928,4.925,3.711,7.329,5.665a27.978,27.978,0,0,0,4.225,3.024,4.254,4.254,0,0,0,5.784-1.122c2.4-2.76,3.75-6.14,5.216-9.455,1.585-3.565,3.843-7.8,1.162-11.448a7.81,7.81,0,0,0-2.166-1.941,8.967,8.967,0,0,1-1.453-.858,6.8,6.8,0,0,1-.528-1.334,19.284,19.284,0,0,0-1.571-3.341c-2.139-3.671-7.857-.343-5.7,3.328h0Z" transform="translate(-0.037 18.411)" fill="#404143"/>
    <path id="パス_624" data-name="パス 624" d="M12.954,60.513c-.607-1.809-1.32-3.578-2.086-5.335A3.243,3.243,0,0,0,7.58,53.607,3.305,3.305,0,0,0,4.834,55.97c-.594,2.3-.9,4.886.409,7.012.264.423.805,1.281,1.32,1.479.224.079.145.106.026-.092s.119.555.145.66c.3,1.215.581,2.43.885,3.644,1.136,4.529,2.892,9.217,6.589,12.28a3.4,3.4,0,0,0,4.674,0,3.324,3.324,0,0,0,0-4.674c-2.918-2.4-3.935-5.533-4.9-9.362-.555-2.179-.739-5.031-2.35-6.748a3.179,3.179,0,0,0-.541-.489c-.317-.317-.357-.317-.145-.026-.185-.33-.2-.33-.026,0-.079-.383-.092-.383-.013,0,0-.145.119-1.334,0-.687q.119-.614.277-1.228l-6.035.792c.489,1.1,1,2.5,1.426,3.75a3.385,3.385,0,0,0,4.067,2.311,3.351,3.351,0,0,0,2.311-4.067h0Z" transform="translate(1.338 17.168)" fill="#404143"/>
    <path id="パス_625" data-name="パス 625" d="M6.327,42.407c.066,1.492.819,2.865,1.122,4.3a15.181,15.181,0,0,1,.277,4.371.823.823,0,0,0,.819.819.832.832,0,0,0,.819-.819,16.648,16.648,0,0,0-.277-4.5,16.616,16.616,0,0,0-.568-2.113,7.681,7.681,0,0,1-.568-2.073c-.04-1.056-1.69-1.07-1.651,0h0Z" transform="translate(1.97 13.328)" fill="#404143"/>
    <path id="パス_626" data-name="パス 626" d="M6.25,43.517a48.728,48.728,0,0,0-.568,9.3,51.065,51.065,0,0,1-.33,9.837.832.832,0,0,0,1.373.805,4.421,4.421,0,0,0,1.347-3.341,19.391,19.391,0,0,1,.37-4.939c.792-2.879,2.205-5.559,2.152-8.623a.834.834,0,0,0-1.413-.581,6.932,6.932,0,0,0-2.139,4.661l1.624-.224-.687-4.2c-.158-.938-1.611-.687-1.624.224A11.05,11.05,0,0,0,6.62,48.9c.211.951,1.558.66,1.624-.224l.673-9.1c.079-1.056-1.571-1.056-1.651,0l-.673,9.1,1.624-.224a8.852,8.852,0,0,1-.2-2.034L6.4,46.647l.687,4.2c.158.964,1.558.66,1.624-.224a5.229,5.229,0,0,1,1.664-3.5l-1.413-.581c.053,2.76-1.215,5.229-1.981,7.817a13.011,13.011,0,0,0-.607,3.552c-.013,1.479.462,3.262-.792,4.371l1.373.805a47.706,47.706,0,0,0,.449-9.4,51.515,51.515,0,0,1,.462-9.732c.145-1.043-1.453-1.492-1.6-.436h0Z" transform="translate(1.664 12.429)" fill="#404143"/>
    <path id="パス_627" data-name="パス 627" d="M11.485,16.393c-.436,1.585-1.9,2.588-2.72,3.961-.9,1.519-.845,3.3-.845,5A75.278,75.278,0,0,0,8.963,37.665c.172,1.043,1.769.607,1.6-.436a72.97,72.97,0,0,1-.977-11.871c0-1.835,0-3.486,1.188-4.978a10.32,10.32,0,0,0,2.311-3.552.829.829,0,0,0-1.6-.436Z" transform="translate(2.49 5.063)" fill="#303031"/>
    <path id="パス_628" data-name="パス 628" d="M10.037,29.394a84.077,84.077,0,0,1,.673,9.111c.013.739.026,1.492.013,2.232s.092.805-.475,1.241c-1.2.924-2.4,1.849-3.6,2.76l2.43.99C8.2,40.394,10.5,35.072,12.506,30.252l-3.182-.872c-1.439,4-1.677,8.279-1.9,12.492h3.3a20.873,20.873,0,0,1,.555-5.2L8.1,35.8c-.475,2.06-.924,4.133-1.215,6.233-.132.977-.211,1.954-.277,2.945a4.494,4.494,0,0,1-.541,2.192,1.668,1.668,0,0,0,.99,2.43l.805.264c2.02.66,2.892-2.535.872-3.182l-.805-.264.99,2.43c1.083-1.7.924-3.763,1.136-5.691a57,57,0,0,1,1.228-6.47c.489-2.139-2.694-2.945-3.182-.872A24.659,24.659,0,0,0,7.422,41.9a1.653,1.653,0,0,0,3.3,0c.2-3.935.436-7.87,1.783-11.607a1.669,1.669,0,0,0-1.149-2.034,1.7,1.7,0,0,0-2.034,1.149C7.026,34.9,4.9,40.592,5.891,46.639a1.662,1.662,0,0,0,2.43.99l4.041-3.09a3.852,3.852,0,0,0,1.505-1.888,8.374,8.374,0,0,0,.158-2.628,83.943,83.943,0,0,0-.7-10.6,1.7,1.7,0,0,0-1.651-1.651c-.805,0-1.769.766-1.651,1.651h0Z" transform="translate(1.759 8.897)" fill="#404143"/>
    <path id="パス_629" data-name="パス 629" d="M47.119,1.043a24.559,24.559,0,0,1,.713,5.189.823.823,0,0,0,.819.819.814.814,0,0,0,.819-.819A26.957,26.957,0,0,0,48.7.607a.828.828,0,0,0-1.6.436h0Z" transform="translate(15.04 -0.002)" fill="#404143"/>
    <path id="パス_630" data-name="パス 630" d="M49.126,5.393a17.382,17.382,0,0,0,1.915-.819c.634-.264,1.241-.475,1.875-.673a25.8,25.8,0,0,1,4.027-.911.84.84,0,0,0,.581-1.017.858.858,0,0,0-1.017-.581A25,25,0,0,0,52.48,2.3c-.634.2-1.254.423-1.875.673A20.345,20.345,0,0,1,48.69,3.8a.829.829,0,0,0,.436,1.6Z" transform="translate(15.37 0.441)" fill="#404143"/>
    <path id="パス_631" data-name="パス 631" d="M67.191,15.221c2.852-.462,4.978,4.384,5.8,6.523A30.924,30.924,0,0,1,74.7,29.628c.594,5.9.277,11.871,1.835,17.655a.829.829,0,0,0,1.6-.436c-1.849-6.88-.99-14.089-2.324-21.048a23.555,23.555,0,0,0-3-8.121c-1.347-2.152-3.262-4.5-6.061-4.054-1.043.172-.607,1.756.436,1.6Z" transform="translate(21.153 4.346)" fill="#404143"/>
    <path id="パス_632" data-name="パス 632" d="M72.714,66c4.252,0,4.252-6.6,0-6.6s-4.252,6.6,0,6.6Z" transform="translate(22.232 19.033)" fill="#404143"/>
    <path id="パス_633" data-name="パス 633" d="M23.543,37.589l-.485-.874C29.755,33,48.065,16.221,48.249,16.052l.676.737C48.169,17.482,30.343,33.813,23.543,37.589Z" transform="translate(7.419 5.26)" fill="#303031"/>
  </g>
  <g id="_-2" transform="translate(2.896 23.449)">
    <path id="パス_634" data-name="パス 634" d="M55.148,104.624q-.3,0-.607-.012c-4.527-.175-9.23-1.93-13.979-5.215a59.332,59.332,0,0,1-11.33-10.634A98.739,98.739,0,0,1,18.916,73.788l-3.951-.62-.113-.108c-2.524-2.411-2.372-8.833-2.307-10.225A17.969,17.969,0,0,1,9.6,59.6a11.731,11.731,0,0,1-1.769-3.621A7.434,7.434,0,0,1,7.91,51.6c.5-1.483,1.289-2.328,2.355-2.513,1.136-.2,2.5.391,4.041,1.746a16.631,16.631,0,0,1,1.919,2l-.787.618c-.818-1.04-3.31-3.675-5-3.381-.675.117-1.206.738-1.577,1.845A6.449,6.449,0,0,0,8.791,55.7a10.71,10.71,0,0,0,1.612,3.3,16.882,16.882,0,0,0,2.964,3.212l.207.163-.017.263a28.735,28.735,0,0,0,.079,4.032c.248,2.658.869,4.573,1.8,5.554l4.127.647.117.221A96.771,96.771,0,0,0,30.009,88.132,58.307,58.307,0,0,0,41.139,98.58c4.587,3.172,9.109,4.865,13.441,5.033a15.786,15.786,0,0,0,6.752-1.285,24.164,24.164,0,0,0,6.148-3.878A51.873,51.873,0,0,0,77.57,86.218a105.15,105.15,0,0,0,8.663-17.672l-.128-19.274.466-.034c1.6-.118,2.953.748,3.9,2.5a9.645,9.645,0,0,1,.92,2.58l0,.029a20.883,20.883,0,0,1-.157,6.314,16.71,16.71,0,0,1-1.487,4.46,12.547,12.547,0,0,1-2.464,3.45l-.053.146.006.95-.366,0a106.474,106.474,0,0,1-8.456,17.073A52.853,52.853,0,0,1,68.124,99.215C63.868,102.806,59.505,104.624,55.148,104.624ZM87.112,50.239l.112,16.94a12.963,12.963,0,0,0,1.659-2.553,15.74,15.74,0,0,0,1.38-4.182,19.9,19.9,0,0,0,.142-5.958,8.779,8.779,0,0,0-.824-2.289A3.256,3.256,0,0,0,87.112,50.239Z" transform="translate(-0.369 -7.573)" fill="#646364"/>
    <path id="パス_635" data-name="パス 635" d="M23.34,47.387,22.88,46.5a26.051,26.051,0,0,1,5.918-2.07,14.289,14.289,0,0,1,5.124-.258,7.231,7.231,0,0,1,4.571,2.45l-.764.645C33.479,42.228,23.441,47.335,23.34,47.387Z" transform="translate(4.461 -9.177)" fill="#646364"/>
    <path id="パス_636" data-name="パス 636" d="M64.154,47.282a7.315,7.315,0,0,0-3.74-1.99,11.455,11.455,0,0,0-4.007-.063,17.421,17.421,0,0,0-4.492,1.306l-.432-.9a18.186,18.186,0,0,1,4.781-1.394,12.446,12.446,0,0,1,4.357.075,8.3,8.3,0,0,1,4.241,2.262Z" transform="translate(13.624 -9.164)" fill="#646364"/>
    <path id="パス_637" data-name="パス 637" d="M46.836,65.878a4.448,4.448,0,0,1-2.613-.729l-.044-.034-.035-.043c-.562-.677-1.968-.914-3.959-.668a19.966,19.966,0,0,0-3.086.654l-.173.054-.168-.07c-1.063-.442-1.579-1.91-1.579-4.489a25.463,25.463,0,0,1,.26-3.47l.988.153a24.9,24.9,0,0,0-.248,3.328c0,1.852.3,3.1.827,3.479a20.884,20.884,0,0,1,3.043-.63c2.371-.295,3.992.03,4.818.966a3.394,3.394,0,0,0,1.38.459,6.792,6.792,0,0,0,4.11-1.022c.663-.374,1.167-.642,1.5-.8.266-.124.689-.322.972-.086a6.168,6.168,0,0,1,3.808-.67c.1-.488.258-1.256.39-2.058.411-2.493.224-2.956.2-3a.283.283,0,0,0,.183.118l.2-.98a.71.71,0,0,1,.461.326c.216.335.379,1.029-.049,3.644C57.793,61.7,57.5,63,57.494,63.015l-.133.583-.55-.233c-2.021-.858-5.059,1.329-5.229,1.453l-.01.007-.285-.384c-.132.073-.278.154-.439.245A8.163,8.163,0,0,1,46.836,65.878Z" transform="translate(8.489 -5.239)" fill="#646364"/>
    <path id="パス_638" data-name="パス 638" d="M61.892,68.529l-.4,1A26.033,26.033,0,0,1,58.1,75.209a19.884,19.884,0,0,1-4.294,4.141,13.342,13.342,0,0,1-6.127,2.372,10.328,10.328,0,0,1-1.153.064A13.364,13.364,0,0,1,40.171,80a25.519,25.519,0,0,1-5.208-3.864,36.845,36.845,0,0,1-4.867-5.6l-.549-.813.98.033.559.02c2.059.075,7.528.275,13.419.275,8.329,0,13.988-.413,16.364-1.195ZM46.527,80.785a9.324,9.324,0,0,0,1.041-.058,12.354,12.354,0,0,0,5.671-2.2,18.889,18.889,0,0,0,4.075-3.934A26.425,26.425,0,0,0,60.128,70.1c-2.867.638-8.109.961-15.622.961-5.507,0-10.643-.174-12.987-.259a37.668,37.668,0,0,0,4.144,4.623,24.491,24.491,0,0,0,5,3.7A12.377,12.377,0,0,0,46.527,80.785Z" transform="translate(6.833 -1.23)" fill="#646364"/>
    <path id="パス_639" data-name="パス 639" d="M50.637,37.937l-.675-1.882a28.184,28.184,0,0,1,5.293-1.219,22.759,22.759,0,0,1,4.982-.151,13.852,13.852,0,0,1,5.195,1.424l-.922,1.775C58.98,35.009,50.72,37.908,50.637,37.937Z" transform="translate(13.175 -12.039)" fill="#303031"/>
    <path id="パス_640" data-name="パス 640" d="M39.588,38.531c-.313-.046-.722-.152-1.288-.3a30.529,30.529,0,0,0-17.325.093l-.589-1.911A32.4,32.4,0,0,1,38.8,36.3c.468.121.873.226,1.081.257Z" transform="translate(3.683 -11.912)" fill="#303031"/>
    <path id="パス_641" data-name="パス 641" d="M17.288,73.058c-1.719-3.5-4.054-20.238-4.153-20.949l.991-.137c.024.172,2.411,17.284,4.06,20.646Z" transform="translate(1.423 -6.774)" fill="#646364"/>
    <path id="線_214" data-name="線 214" d="M4.674,9.356-.436.245.436-.245l5.11,9.111Z" transform="translate(89.713 83.189)" fill="#303031"/>
    <path id="線_215" data-name="線 215" d="M5.832,21.887-.48.139.48-.139,6.792,21.609Z" transform="translate(92.05 65.495)" fill="#303031"/>
    <path id="パス_642" data-name="パス 642" d="M2.329,85.454l-.2-.98c1.74-.352,2.908-2.314,3.582-3.9A18.776,18.776,0,0,0,6.8,77.032l.984.176C7.725,77.511,6.405,84.63,2.329,85.454Z" transform="translate(-2.23 1.263)" fill="#303031"/>
    <path id="パス_643" data-name="パス 643" d="M60.343,31.331c-2.484-1.62-4.722-4.376-6.65-8.19A34.838,34.838,0,0,1,51.541,17.9l.958-.285h0a34.535,34.535,0,0,0,2.095,5.088c1.269,2.507,3.392,5.893,6.3,7.788Z" transform="translate(13.726 -17.76)" fill="#303031"/>

  </g>
</svg>
